<svg id="svg" version="1.1" xmlns="http://www.w3.org/2000/svg" xmlns:xlink="http://www.w3.org/1999/xlink" width="100" height="100" viewBox="0, 0, 400,400"><g id="svgg"><path id="path0" d="M64.400 46.375 C 45.172 46.629,45.393 46.596,44.995 49.357 C 44.307 54.132,44.994 144.189,45.729 145.536 C 46.129 146.270,46.976 148.790,47.610 151.136 C 49.409 157.792,51.440 163.206,52.676 164.641 C 53.297 165.362,54.159 166.863,54.591 167.977 C 55.023 169.091,55.655 170.090,55.994 170.198 C 56.334 170.306,57.689 171.594,59.006 173.059 C 63.260 177.795,68.857 183.157,70.633 184.198 C 71.584 184.756,72.596 185.543,72.882 185.946 C 73.452 186.754,75.648 188.000,76.501 188.000 C 76.799 188.000,77.753 188.522,78.621 189.159 C 79.490 189.797,81.365 190.700,82.790 191.167 C 84.214 191.634,86.020 192.459,86.802 193.002 C 87.585 193.544,89.119 194.157,90.212 194.365 C 92.681 194.834,94.400 195.476,95.254 196.249 C 95.615 196.575,97.595 197.418,99.655 198.121 C 103.995 199.603,104.332 200.211,101.400 201.268 C 99.530 201.942,97.802 201.975,74.869 201.780 C 48.030 201.552,45.855 201.677,45.168 203.484 C 44.664 204.809,44.688 353.603,45.191 354.400 C 45.618 355.074,88.799 355.334,89.467 354.667 C 89.650 354.483,89.833 342.085,89.874 327.116 L 89.947 299.899 90.979 298.822 L 92.010 297.746 101.377 297.848 C 111.939 297.963,112.456 298.083,114.318 300.844 C 114.913 301.727,116.051 303.232,116.848 304.188 C 117.644 305.145,118.411 306.389,118.552 306.952 C 118.694 307.516,119.167 308.168,119.603 308.402 C 120.040 308.636,120.753 309.524,121.188 310.376 C 121.622 311.227,122.413 312.267,122.944 312.685 C 123.476 313.103,124.552 314.447,125.335 315.672 C 126.119 316.897,127.030 318.003,127.359 318.129 C 127.689 318.255,128.262 318.946,128.633 319.664 C 129.005 320.382,129.824 321.486,130.454 322.116 C 131.084 322.746,131.600 323.502,131.600 323.797 C 131.600 324.091,132.146 324.842,132.813 325.466 C 133.480 326.090,134.452 327.320,134.972 328.200 C 135.492 329.081,136.315 330.161,136.801 330.600 C 137.287 331.040,138.015 332.046,138.418 332.835 C 138.820 333.624,139.791 334.911,140.575 335.695 C 141.359 336.479,142.000 337.396,142.000 337.733 C 142.000 338.070,142.544 338.733,143.209 339.206 C 143.874 339.680,144.797 340.817,145.260 341.734 C 145.990 343.179,147.581 345.202,150.344 348.200 C 150.749 348.640,151.538 349.720,152.097 350.600 C 152.656 351.480,153.772 352.830,154.579 353.600 L 156.044 355.000 254.722 355.110 C 362.242 355.230,355.064 355.345,355.403 353.497 C 355.869 350.957,355.825 327.249,355.353 326.603 C 354.962 326.068,351.799 325.980,329.953 325.896 C 303.334 325.794,303.675 325.818,302.066 323.880 C 301.536 323.241,301.289 234.017,301.814 232.689 C 302.453 231.068,302.836 231.047,329.221 231.161 C 351.707 231.259,354.702 231.200,355.154 230.656 C 356.616 228.894,355.988 190.282,354.483 189.400 C 354.107 189.180,352.435 187.628,350.767 185.950 C 349.099 184.273,347.329 182.683,346.833 182.418 C 346.338 182.153,345.675 181.320,345.361 180.568 C 345.046 179.816,344.593 179.200,344.353 179.200 C 344.113 179.200,342.694 177.922,341.198 176.360 C 338.421 173.459,338.031 173.057,336.296 171.304 C 334.141 169.124,333.733 168.738,331.854 167.098 C 330.783 166.164,329.523 164.967,329.054 164.438 C 328.584 163.908,327.687 163.008,327.060 162.438 C 326.433 161.867,325.665 160.908,325.353 160.307 C 325.041 159.705,324.295 158.950,323.693 158.628 C 322.569 158.027,319.748 155.323,317.098 152.309 C 313.173 147.843,311.313 145.883,308.171 142.904 C 306.835 141.637,305.436 140.105,305.062 139.500 C 304.688 138.895,304.110 138.400,303.777 138.400 C 303.445 138.400,302.797 137.763,302.338 136.985 C 301.879 136.207,300.991 135.305,300.364 134.981 C 299.737 134.657,299.023 134.017,298.778 133.559 C 298.182 132.445,294.080 128.340,292.688 127.465 C 292.077 127.081,291.149 125.837,290.627 124.701 L 289.678 122.635 290.812 120.618 C 291.435 119.508,292.600 118.142,293.400 117.582 C 294.201 117.022,295.221 115.987,295.667 115.282 C 296.113 114.577,296.646 114.000,296.851 114.000 C 297.056 114.000,298.391 112.785,299.818 111.300 C 303.006 107.983,302.752 108.243,304.200 106.808 C 304.860 106.154,305.797 105.210,306.282 104.710 C 308.147 102.786,317.133 93.807,318.314 92.687 C 318.596 92.419,322.592 88.330,327.193 83.600 C 331.794 78.870,336.693 73.883,338.079 72.518 C 341.683 68.969,345.285 65.254,346.921 63.400 C 347.697 62.520,349.813 60.289,351.623 58.441 C 355.746 54.233,357.164 50.240,355.420 47.750 C 354.561 46.523,341.821 46.145,316.400 46.590 C 310.698 46.690,311.282 46.429,306.549 50.999 C 301.287 56.079,301.522 55.844,298.800 58.757 C 293.104 64.852,288.612 69.608,284.304 74.101 C 281.722 76.796,278.842 79.878,277.904 80.952 C 276.967 82.025,274.625 84.496,272.700 86.442 C 270.775 88.388,269.200 90.155,269.200 90.368 C 269.200 90.581,268.668 91.069,268.017 91.454 C 267.366 91.838,266.623 92.662,266.365 93.284 C 266.107 93.907,265.379 94.721,264.748 95.095 C 264.116 95.468,263.510 96.049,263.402 96.387 C 263.294 96.724,261.121 99.061,258.572 101.579 C 256.024 104.098,253.700 106.618,253.408 107.179 C 252.415 109.090,250.594 110.078,248.613 109.781 C 245.992 109.388,245.677 108.289,245.810 100.000 C 245.868 96.370,245.936 83.257,245.961 70.860 L 246.006 48.320 244.913 47.460 L 243.820 46.600 201.790 46.489 L 159.761 46.377 158.880 47.315 L 157.999 48.253 157.956 92.349 L 157.912 136.446 156.956 138.244 C 156.430 139.233,156.000 140.471,156.000 140.995 C 156.000 147.005,150.564 155.559,144.813 158.600 C 143.565 159.260,141.931 160.201,141.182 160.690 C 140.433 161.180,138.826 161.768,137.610 161.997 C 136.395 162.225,134.680 162.766,133.800 163.199 C 129.924 165.103,119.939 165.226,114.908 163.432 C 113.317 162.864,111.607 162.399,111.108 162.398 C 109.488 162.394,107.252 161.592,106.056 160.586 C 105.414 160.045,103.833 159.072,102.544 158.423 C 101.192 157.743,99.376 156.345,98.253 155.122 C 97.182 153.955,95.877 152.534,95.352 151.965 C 94.826 151.396,93.931 149.776,93.362 148.365 C 92.793 146.954,91.943 145.385,91.472 144.877 C 90.125 143.423,90.059 141.052,90.028 93.319 C 90.008 61.922,89.871 48.554,89.561 47.874 C 89.108 46.880,89.106 46.880,82.600 46.264 C 81.940 46.202,73.750 46.252,64.400 46.375 M251.332 136.674 C 251.954 136.992,252.706 137.834,253.002 138.543 C 253.299 139.253,254.001 140.080,254.564 140.381 C 255.126 140.682,255.696 141.272,255.829 141.693 C 256.108 142.571,261.020 147.600,261.599 147.600 C 261.811 147.600,262.351 148.320,262.800 149.200 C 263.249 150.080,263.789 150.800,264.000 150.800 C 264.364 150.800,270.594 156.558,271.956 158.154 C 275.091 161.827,279.870 167.163,282.366 169.777 C 284.035 171.525,287.200 174.843,289.400 177.151 C 291.600 179.459,294.158 182.111,295.085 183.044 C 296.012 183.977,296.884 185.196,297.024 185.752 C 297.196 186.440,297.707 186.905,298.621 187.207 C 299.418 187.470,300.771 188.576,301.947 189.925 C 303.037 191.176,304.845 193.144,305.964 194.299 C 307.565 195.948,308.013 196.697,308.060 197.799 C 308.093 198.569,308.138 199.418,308.160 199.684 C 308.321 201.635,278.179 202.618,249.109 201.610 C 247.755 201.563,245.528 197.319,245.750 195.211 C 245.936 193.459,246.000 173.652,245.891 151.600 C 245.884 150.170,245.883 148.010,245.889 146.800 C 245.895 145.590,245.892 143.070,245.882 141.200 C 245.850 135.538,247.094 134.505,251.332 136.674 M201.111 157.500 C 201.856 159.167,202.273 220.258,201.548 221.669 C 200.519 223.674,200.170 223.664,197.033 221.545 C 195.403 220.443,193.595 218.859,193.017 218.024 C 192.438 217.189,191.253 216.185,190.384 215.793 C 189.515 215.401,188.377 214.521,187.856 213.837 C 187.203 212.982,186.301 212.432,184.961 212.074 C 183.890 211.788,182.471 211.148,181.807 210.653 C 181.143 210.157,179.430 209.334,178.000 208.824 C 176.570 208.314,174.950 207.588,174.400 207.212 C 173.850 206.836,171.690 206.211,169.600 205.823 C 167.510 205.435,164.720 204.674,163.400 204.133 C 162.080 203.591,159.920 203.067,158.600 202.969 C 157.280 202.870,153.628 202.617,150.484 202.406 C 139.665 201.681,138.299 199.357,147.547 197.411 C 149.121 197.080,151.324 196.345,152.444 195.778 C 153.563 195.210,155.828 194.488,157.477 194.173 C 159.126 193.857,160.923 193.247,161.471 192.816 C 162.018 192.385,163.486 191.652,164.733 191.187 C 165.980 190.722,167.364 190.003,167.808 189.588 C 168.253 189.173,169.814 188.290,171.279 187.626 C 172.743 186.962,174.060 186.227,174.204 185.993 C 174.349 185.759,175.127 185.151,175.934 184.642 C 176.740 184.133,178.679 182.450,180.241 180.903 C 181.804 179.355,183.823 177.599,184.728 177.000 C 185.633 176.401,186.960 174.986,187.676 173.856 C 188.393 172.725,189.317 171.551,189.732 171.248 C 190.146 170.944,190.740 170.084,191.052 169.338 C 191.720 167.739,194.665 163.194,196.325 161.200 C 196.966 160.430,197.808 159.170,198.195 158.400 C 199.647 155.516,200.154 155.359,201.111 157.500 M144.000 231.628 C 144.990 231.858,146.432 232.460,147.205 232.966 C 147.978 233.472,149.058 234.025,149.605 234.194 C 155.938 236.157,158.464 239.986,158.713 248.000 C 158.980 256.552,157.585 260.469,153.505 262.634 C 152.903 262.954,151.822 263.732,151.103 264.363 C 149.638 265.649,146.244 266.800,143.915 266.800 C 143.067 266.800,141.705 267.111,140.887 267.491 C 138.951 268.391,92.793 268.824,91.743 267.952 C 89.960 266.473,89.903 265.885,89.925 249.166 C 89.946 232.566,89.994 232.082,91.689 231.325 C 92.777 230.839,141.830 231.123,144.000 231.628 M252.656 231.168 C 253.607 231.187,254.686 231.503,255.192 231.913 L 256.072 232.626 256.043 277.726 C 256.023 308.325,255.879 323.078,255.595 323.609 C 254.412 325.819,254.700 325.796,227.832 325.849 L 203.064 325.899 202.284 326.969 C 201.542 327.988,201.525 328.366,201.925 334.720 C 202.360 341.633,201.835 344.818,200.264 344.792 C 198.372 344.761,191.974 338.322,190.590 335.056 C 190.297 334.365,189.689 333.576,189.238 333.302 C 188.788 333.029,188.050 332.083,187.600 331.200 C 187.150 330.317,186.420 329.371,185.978 329.098 C 185.537 328.824,184.690 327.880,184.096 327.000 C 183.502 326.120,182.428 324.693,181.708 323.828 C 180.989 322.963,180.400 322.050,180.400 321.798 C 180.400 321.546,179.932 320.903,179.361 320.370 C 178.790 319.836,177.987 318.747,177.578 317.949 C 177.169 317.151,176.565 316.395,176.236 316.269 C 175.907 316.143,175.141 315.266,174.534 314.320 C 173.928 313.374,172.704 311.749,171.816 310.710 C 168.769 307.145,167.715 305.799,167.194 304.808 C 166.908 304.262,166.247 303.480,165.725 303.070 C 165.204 302.660,164.402 301.576,163.942 300.662 C 163.483 299.748,162.815 298.669,162.459 298.264 C 161.589 297.276,163.951 294.988,166.268 294.576 C 167.110 294.425,168.355 293.968,169.034 293.560 C 169.713 293.151,171.873 292.443,173.834 291.986 C 175.795 291.529,177.856 290.829,178.412 290.430 C 179.990 289.301,182.447 288.126,184.242 287.643 C 185.143 287.400,186.429 286.706,187.100 286.101 C 187.771 285.495,189.339 284.190,190.584 283.200 C 193.893 280.568,196.625 277.769,197.739 275.869 C 198.277 274.950,199.100 273.853,199.568 273.429 C 200.036 273.006,200.692 271.720,201.025 270.572 C 201.359 269.425,201.985 268.079,202.416 267.582 C 202.847 267.084,203.200 266.650,203.200 266.616 C 203.200 266.582,203.567 264.585,204.015 262.177 C 205.076 256.482,205.442 247.984,204.806 243.800 C 204.539 242.040,204.343 239.880,204.370 239.000 C 204.397 238.120,204.248 236.500,204.037 235.400 C 203.617 233.205,204.145 231.816,205.602 231.278 C 206.178 231.066,242.799 230.981,252.656 231.168 " stroke="none" fill="#f7f7f9" fill-rule="evenodd"></path><path id="path1" d="M0.000 201.800 L 0.000 400.000 200.000 400.000 L 400.000 400.000 400.000 201.800 L 400.000 3.600 200.000 3.600 L 0.000 3.600 0.000 201.800 M91.115 44.533 L 92.200 45.618 92.307 91.057 C 92.411 135.638,92.428 136.516,93.207 137.609 C 93.788 138.426,94.000 139.371,94.000 141.147 C 94.000 143.627,95.219 147.714,96.133 148.295 C 96.396 148.463,97.358 149.500,98.271 150.600 C 102.535 155.738,104.301 157.181,107.045 157.772 C 107.730 157.919,108.645 158.448,109.079 158.947 C 111.475 161.703,135.464 161.937,137.659 159.226 C 138.038 158.759,139.496 157.960,140.900 157.451 C 142.854 156.742,143.962 155.999,145.626 154.284 C 149.285 150.513,150.400 149.199,150.400 148.661 C 150.400 148.377,151.038 147.399,151.818 146.488 C 154.164 143.746,154.162 143.800,154.252 93.064 C 154.339 44.152,154.260 45.924,156.426 44.381 C 158.132 43.167,246.985 43.018,247.870 44.228 C 249.170 46.006,249.253 48.096,249.160 76.772 C 249.109 92.552,249.198 105.673,249.357 105.931 C 249.848 106.724,250.748 106.454,251.459 105.300 C 252.313 103.914,253.061 103.064,257.399 98.556 C 259.328 96.552,261.058 94.640,261.243 94.308 C 261.429 93.976,262.102 93.489,262.739 93.225 C 263.375 92.962,264.101 92.297,264.351 91.748 C 265.051 90.212,269.120 85.331,270.375 84.522 C 270.991 84.125,272.717 82.450,274.209 80.800 C 278.850 75.670,280.181 74.267,282.426 72.142 C 283.622 71.010,285.590 68.955,286.800 67.575 C 288.010 66.196,289.180 64.919,289.400 64.739 C 289.620 64.559,290.375 63.951,291.079 63.388 C 291.782 62.825,292.466 62.022,292.599 61.603 C 292.732 61.184,293.160 60.740,293.549 60.616 C 293.939 60.492,294.657 59.680,295.146 58.811 C 295.635 57.941,296.556 56.859,297.193 56.405 C 297.831 55.951,298.464 55.230,298.599 54.802 C 298.735 54.375,299.542 53.634,300.394 53.155 C 301.245 52.677,302.042 51.906,302.164 51.443 C 302.581 49.864,309.092 43.631,310.386 43.572 C 310.724 43.556,321.170 43.541,333.600 43.537 L 356.200 43.531 357.513 45.047 C 361.054 49.136,359.105 57.070,353.463 61.533 C 352.108 62.605,346.770 67.775,341.600 73.023 C 336.430 78.270,331.300 83.425,330.200 84.479 C 329.100 85.533,328.020 86.595,327.800 86.840 C 325.562 89.331,319.019 95.603,318.481 95.774 C 318.101 95.895,317.507 96.458,317.163 97.025 C 316.819 97.593,314.194 100.519,311.331 103.528 C 308.467 106.538,305.201 110.057,304.074 111.348 C 302.947 112.640,301.477 114.100,300.809 114.593 C 300.141 115.087,299.177 115.920,298.668 116.445 C 298.160 116.970,296.631 118.439,295.272 119.710 C 293.883 121.008,292.800 122.361,292.800 122.797 C 292.800 123.505,298.929 130.000,299.597 130.000 C 299.750 130.000,300.213 130.630,300.628 131.400 C 301.043 132.170,301.534 132.800,301.721 132.800 C 302.040 132.800,312.844 143.543,314.625 145.632 C 315.080 146.164,315.756 146.870,316.129 147.200 C 316.502 147.530,318.026 149.060,319.515 150.600 C 321.004 152.140,323.388 154.502,324.811 155.848 C 326.235 157.194,329.650 160.648,332.400 163.524 C 335.150 166.399,337.726 169.078,338.124 169.476 C 345.082 176.434,347.245 178.714,347.425 179.280 C 347.544 179.653,348.006 180.075,348.453 180.217 C 348.899 180.358,350.424 181.673,351.841 183.137 C 353.258 184.602,355.043 186.430,355.809 187.200 C 357.138 188.536,357.457 189.312,358.856 194.600 C 359.135 195.654,359.219 201.589,359.100 211.996 C 358.959 224.446,359.032 228.058,359.446 229.047 L 359.970 230.302 357.685 231.759 L 355.400 233.215 331.200 233.156 C 303.772 233.089,304.194 233.059,303.851 235.136 C 303.333 238.270,303.572 321.534,304.100 321.876 C 304.375 322.054,315.996 322.245,329.925 322.299 C 357.975 322.410,356.094 322.201,358.242 325.437 C 359.652 327.561,359.703 327.755,359.332 329.533 C 359.118 330.560,359.016 333.830,359.105 336.800 C 359.603 353.383,359.310 355.598,356.460 356.773 C 354.194 357.707,154.487 357.146,152.627 356.200 C 151.050 355.398,149.028 352.689,147.199 348.924 C 146.751 348.003,146.022 347.134,145.580 346.994 C 145.137 346.853,144.398 345.936,143.937 344.956 C 143.477 343.976,142.760 342.992,142.344 342.770 C 141.927 342.547,141.051 341.415,140.396 340.255 C 139.741 339.094,138.759 337.725,138.214 337.213 C 137.669 336.701,137.027 335.687,136.787 334.960 C 136.547 334.233,136.014 333.531,135.603 333.401 C 135.191 333.270,134.404 332.407,133.853 331.482 C 133.303 330.557,132.345 329.332,131.726 328.760 C 131.107 328.189,130.335 327.199,130.011 326.560 C 129.687 325.922,128.832 324.724,128.111 323.899 C 127.390 323.073,126.800 322.083,126.800 321.699 C 126.800 321.314,126.170 320.497,125.400 319.883 C 124.630 319.269,124.000 318.510,124.000 318.196 C 124.000 317.883,123.187 316.676,122.193 315.513 C 121.199 314.351,119.687 312.581,118.832 311.580 C 117.977 310.580,117.006 309.109,116.673 308.313 C 116.340 307.516,115.694 306.664,115.237 306.420 C 114.780 306.175,114.086 305.350,113.694 304.586 C 113.301 303.821,112.088 302.459,110.997 301.557 L 109.014 299.919 101.407 300.092 C 97.223 300.187,93.492 300.402,93.115 300.570 C 92.143 301.002,92.026 350.109,92.991 352.895 C 93.557 354.531,93.545 354.629,92.691 355.313 C 90.287 357.236,91.047 357.180,67.166 357.210 L 44.657 357.238 43.720 356.302 L 42.784 355.366 42.796 278.660 C 42.809 197.432,42.744 200.339,44.578 198.818 C 45.408 198.130,71.788 197.812,78.381 198.411 C 82.221 198.760,86.475 198.230,88.491 197.151 C 89.241 196.750,89.039 196.609,86.565 195.819 C 85.044 195.333,83.079 194.563,82.198 194.109 C 81.317 193.655,79.803 193.070,78.835 192.809 C 77.856 192.546,76.524 191.778,75.837 191.082 C 75.157 190.393,73.562 189.334,72.293 188.728 C 71.024 188.122,69.876 187.342,69.742 186.994 C 69.609 186.646,68.990 186.145,68.367 185.881 C 65.143 184.512,54.516 173.598,52.948 170.046 C 52.452 168.920,51.852 168.000,51.617 168.000 C 51.031 168.000,49.679 165.726,49.180 163.900 C 48.954 163.075,48.601 162.400,48.395 162.400 C 47.786 162.400,46.954 160.401,46.258 157.267 C 45.900 155.653,45.245 153.825,44.803 153.204 C 43.163 150.900,43.101 149.038,42.926 96.153 L 42.758 45.306 43.891 44.353 L 45.024 43.400 67.527 43.424 L 90.030 43.448 91.115 44.533 M249.374 139.323 C 249.087 140.071,249.082 140.662,249.134 169.554 C 249.160 183.939,249.085 195.863,248.967 196.053 C 248.850 196.243,249.029 196.792,249.366 197.272 L 249.978 198.146 274.089 198.220 C 287.350 198.261,298.886 198.430,299.725 198.597 C 301.391 198.926,304.400 197.898,304.400 196.999 C 304.400 196.735,303.397 195.728,302.171 194.760 C 300.945 193.792,299.484 192.229,298.925 191.287 C 298.366 190.344,297.408 189.315,296.797 188.999 C 296.187 188.683,295.495 187.875,295.261 187.204 C 295.027 186.533,294.289 185.672,293.620 185.292 C 292.952 184.911,292.404 184.459,292.403 184.286 C 292.401 184.114,291.095 182.727,289.500 181.205 C 287.905 179.684,286.240 178.091,285.800 177.666 C 285.360 177.241,283.650 175.392,282.000 173.557 C 280.350 171.722,278.190 169.364,277.200 168.318 C 276.210 167.272,274.410 165.322,273.200 163.984 C 271.990 162.647,270.204 160.798,269.230 159.876 C 268.257 158.954,267.229 157.930,266.947 157.600 C 266.664 157.270,265.255 155.753,263.816 154.228 C 262.377 152.704,261.200 151.313,261.200 151.138 C 261.200 150.962,259.696 149.330,257.857 147.509 C 256.018 145.689,254.389 143.804,254.236 143.320 C 254.084 142.837,253.605 142.329,253.173 142.191 C 252.740 142.054,252.026 141.235,251.585 140.371 C 250.789 138.810,249.758 138.322,249.374 139.323 M195.461 167.700 C 194.911 168.635,193.865 170.468,193.136 171.773 C 192.407 173.078,191.322 174.426,190.725 174.769 C 190.128 175.111,189.308 176.022,188.902 176.793 C 188.496 177.564,187.802 178.376,187.359 178.597 C 186.916 178.819,185.280 180.305,183.724 181.900 C 182.167 183.495,180.736 184.800,180.544 184.800 C 180.352 184.800,179.206 185.611,177.998 186.602 C 176.790 187.593,175.171 188.604,174.401 188.849 C 173.630 189.094,172.460 189.803,171.800 190.423 C 171.140 191.044,169.700 191.972,168.600 192.487 C 167.500 193.001,166.150 193.721,165.600 194.088 C 165.050 194.454,163.160 195.146,161.400 195.625 C 159.640 196.105,157.203 196.999,155.984 197.612 C 154.765 198.225,152.650 198.947,151.284 199.215 C 146.587 200.139,148.927 200.630,160.627 201.174 C 166.302 201.437,167.307 201.591,169.227 202.487 C 170.422 203.045,172.300 203.631,173.400 203.789 C 175.765 204.128,177.877 204.954,178.995 205.974 C 179.438 206.378,181.060 207.123,182.600 207.628 C 184.140 208.134,185.850 208.886,186.400 209.301 C 186.950 209.715,188.930 211.031,190.800 212.226 C 193.190 213.752,194.500 214.894,195.209 216.068 C 197.176 219.328,198.469 218.388,198.332 213.795 C 198.280 212.038,198.276 201.195,198.324 189.700 C 198.425 165.293,198.144 163.134,195.461 167.700 M99.285 233.200 C 93.810 233.406,93.872 233.386,92.804 235.242 C 92.208 236.277,92.160 263.920,92.753 264.512 C 94.130 265.888,144.724 265.097,146.745 263.668 C 147.264 263.301,148.613 262.454,149.743 261.786 C 156.776 257.631,159.633 247.181,155.085 242.245 C 151.085 237.903,149.578 236.745,146.621 235.739 C 145.089 235.218,143.107 234.445,142.218 234.021 C 140.514 233.210,113.002 232.684,99.285 233.200 M209.900 233.116 L 206.400 233.231 206.400 235.258 C 206.400 236.836,206.621 237.547,207.400 238.473 L 208.400 239.661 208.400 248.425 C 208.400 257.004,208.376 257.262,207.247 260.694 C 206.613 262.622,205.967 265.266,205.810 266.568 C 205.594 268.368,205.269 269.193,204.455 270.006 C 203.867 270.595,203.067 272.087,202.678 273.321 C 202.228 274.747,201.553 275.900,200.828 276.483 C 200.200 276.987,199.227 278.318,198.667 279.440 C 198.106 280.562,197.052 281.964,196.324 282.555 C 195.596 283.146,194.134 284.343,193.076 285.215 C 192.017 286.087,191.009 286.800,190.835 286.800 C 190.661 286.800,189.978 287.317,189.316 287.949 C 188.655 288.581,187.144 289.413,185.957 289.798 C 184.771 290.183,183.350 290.914,182.800 291.423 C 182.223 291.956,180.615 292.636,179.000 293.030 C 177.460 293.405,175.090 294.239,173.734 294.882 C 172.330 295.547,170.263 296.149,168.934 296.280 C 166.535 296.515,165.200 296.974,165.200 297.563 C 165.200 297.950,169.081 302.918,170.542 304.400 C 171.083 304.950,171.797 306.058,172.127 306.861 C 172.464 307.682,173.110 308.444,173.600 308.600 C 174.080 308.752,174.722 309.474,175.027 310.204 C 175.332 310.933,176.308 312.370,177.196 313.396 C 178.085 314.422,179.070 315.761,179.385 316.372 C 179.701 316.982,180.413 317.779,180.969 318.143 C 181.524 318.506,182.129 319.388,182.314 320.102 C 182.507 320.848,183.055 321.602,183.602 321.875 C 184.126 322.137,184.834 322.881,185.177 323.529 C 185.520 324.176,186.392 325.403,187.115 326.253 C 191.187 331.043,191.889 331.968,192.405 333.223 C 192.716 333.980,193.518 335.156,194.186 335.837 C 194.853 336.517,195.700 337.507,196.067 338.037 C 197.770 340.495,199.145 337.395,198.423 332.725 C 197.751 328.383,198.160 326.882,200.788 324.040 L 202.785 321.881 206.292 322.152 C 212.055 322.599,249.775 322.440,252.012 321.960 L 254.000 321.534 254.000 278.586 C 254.000 232.188,254.077 233.797,251.839 233.386 C 250.523 233.144,215.816 232.920,209.900 233.116 " stroke="none" fill="#2c2b60" fill-rule="evenodd"></path><path id="path2" d="M0.000 2.800 C 0.000 3.599,0.267 3.600,200.000 3.600 C 399.733 3.600,400.000 3.599,400.000 2.800 C 400.000 2.001,399.733 2.000,200.000 2.000 C 0.267 2.000,0.000 2.001,0.000 2.800 M43.891 44.353 L 42.758 45.306 42.926 96.153 C 43.101 149.038,43.163 150.900,44.803 153.204 C 45.245 153.825,45.900 155.653,46.258 157.267 C 46.954 160.401,47.786 162.400,48.395 162.400 C 48.601 162.400,48.954 163.075,49.180 163.900 C 49.679 165.726,51.031 168.000,51.617 168.000 C 51.852 168.000,52.452 168.920,52.948 170.046 C 54.516 173.598,65.143 184.512,68.367 185.881 C 68.990 186.145,69.609 186.646,69.742 186.994 C 69.876 187.342,71.024 188.122,72.293 188.728 C 73.562 189.334,75.157 190.393,75.837 191.082 C 76.524 191.778,77.856 192.546,78.835 192.809 C 79.803 193.070,81.317 193.655,82.198 194.109 C 83.079 194.563,85.044 195.333,86.565 195.819 C 89.039 196.609,89.241 196.750,88.491 197.151 C 86.475 198.230,82.221 198.760,78.381 198.411 C 71.788 197.812,45.408 198.130,44.578 198.818 C 42.744 200.339,42.809 197.432,42.796 278.660 L 42.784 355.366 43.720 356.302 L 44.657 357.238 67.166 357.210 C 91.047 357.180,90.287 357.236,92.691 355.313 C 93.545 354.629,93.557 354.531,92.991 352.895 C 92.026 350.109,92.143 301.002,93.115 300.570 C 93.492 300.402,97.223 300.187,101.407 300.092 L 109.014 299.919 110.997 301.557 C 112.088 302.459,113.301 303.821,113.694 304.586 C 114.086 305.350,114.780 306.175,115.237 306.420 C 115.694 306.664,116.340 307.516,116.673 308.313 C 117.006 309.109,117.977 310.580,118.832 311.580 C 119.687 312.581,121.199 314.351,122.193 315.513 C 123.187 316.676,124.000 317.883,124.000 318.196 C 124.000 318.510,124.630 319.269,125.400 319.883 C 126.170 320.497,126.800 321.314,126.800 321.699 C 126.800 322.083,127.390 323.073,128.111 323.899 C 128.832 324.724,129.687 325.922,130.011 326.560 C 130.335 327.199,131.107 328.189,131.726 328.760 C 132.345 329.332,133.303 330.557,133.853 331.482 C 134.404 332.407,135.191 333.270,135.603 333.401 C 136.014 333.531,136.547 334.233,136.787 334.960 C 137.027 335.687,137.669 336.701,138.214 337.213 C 138.759 337.725,139.741 339.094,140.396 340.255 C 141.051 341.415,141.927 342.547,142.344 342.770 C 142.760 342.992,143.477 343.976,143.937 344.956 C 144.398 345.936,145.137 346.853,145.580 346.994 C 146.022 347.134,146.751 348.003,147.199 348.924 C 149.028 352.689,151.050 355.398,152.627 356.200 C 154.487 357.146,354.194 357.707,356.460 356.773 C 359.310 355.598,359.603 353.383,359.105 336.800 C 359.016 333.830,359.118 330.560,359.332 329.533 C 359.703 327.755,359.652 327.561,358.242 325.437 C 356.094 322.201,357.975 322.410,329.925 322.299 C 315.996 322.245,304.375 322.054,304.100 321.876 C 303.572 321.534,303.333 238.270,303.851 235.136 C 304.194 233.059,303.772 233.089,331.200 233.156 L 355.400 233.215 357.685 231.759 L 359.970 230.302 359.446 229.047 C 359.032 228.058,358.959 224.446,359.100 211.996 C 359.219 201.589,359.135 195.654,358.856 194.600 C 357.457 189.312,357.138 188.536,355.809 187.200 C 355.043 186.430,353.258 184.602,351.841 183.137 C 350.424 181.673,348.899 180.358,348.453 180.217 C 348.006 180.075,347.544 179.653,347.425 179.280 C 347.245 178.714,345.082 176.434,338.124 169.476 C 337.726 169.078,335.150 166.399,332.400 163.524 C 329.650 160.648,326.235 157.194,324.811 155.848 C 323.388 154.502,321.004 152.140,319.515 150.600 C 318.026 149.060,316.502 147.530,316.129 147.200 C 315.756 146.870,315.080 146.164,314.625 145.632 C 312.844 143.543,302.040 132.800,301.721 132.800 C 301.534 132.800,301.043 132.170,300.628 131.400 C 300.213 130.630,299.750 130.000,299.597 130.000 C 298.929 130.000,292.800 123.505,292.800 122.797 C 292.800 122.361,293.883 121.008,295.272 119.710 C 296.631 118.439,298.160 116.970,298.668 116.445 C 299.177 115.920,300.141 115.087,300.809 114.593 C 301.477 114.100,302.947 112.640,304.074 111.348 C 305.201 110.057,308.467 106.538,311.331 103.528 C 314.194 100.519,316.819 97.593,317.163 97.025 C 317.507 96.458,318.101 95.895,318.481 95.774 C 319.019 95.603,325.562 89.331,327.800 86.840 C 328.020 86.595,329.100 85.533,330.200 84.479 C 331.300 83.425,336.430 78.270,341.600 73.023 C 346.770 67.775,352.108 62.605,353.463 61.533 C 359.105 57.070,361.054 49.136,357.513 45.047 L 356.200 43.531 333.600 43.537 C 321.170 43.541,310.724 43.556,310.386 43.572 C 309.092 43.631,302.581 49.864,302.164 51.443 C 302.042 51.906,301.245 52.677,300.394 53.155 C 299.542 53.634,298.735 54.375,298.599 54.802 C 298.464 55.230,297.831 55.951,297.193 56.405 C 296.556 56.859,295.635 57.941,295.146 58.811 C 294.657 59.680,293.939 60.492,293.549 60.616 C 293.160 60.740,292.732 61.184,292.599 61.603 C 292.466 62.022,291.782 62.825,291.079 63.388 C 290.375 63.951,289.620 64.559,289.400 64.739 C 289.180 64.919,288.010 66.196,286.800 67.575 C 285.590 68.955,283.622 71.010,282.426 72.142 C 280.181 74.267,278.850 75.670,274.209 80.800 C 272.717 82.450,270.991 84.125,270.375 84.522 C 269.120 85.331,265.051 90.212,264.351 91.748 C 264.101 92.297,263.375 92.962,262.739 93.225 C 262.102 93.489,261.429 93.976,261.243 94.308 C 261.058 94.640,259.328 96.552,257.399 98.556 C 253.061 103.064,252.313 103.914,251.459 105.300 C 250.748 106.454,249.848 106.724,249.357 105.931 C 249.198 105.673,249.109 92.552,249.160 76.772 C 249.253 48.096,249.170 46.006,247.870 44.228 C 246.985 43.018,158.132 43.167,156.426 44.381 C 154.260 45.924,154.339 44.152,154.252 93.064 C 154.162 143.800,154.164 143.746,151.818 146.488 C 151.038 147.399,150.400 148.377,150.400 148.661 C 150.400 149.199,149.285 150.513,145.626 154.284 C 143.962 155.999,142.854 156.742,140.900 157.451 C 139.496 157.960,138.038 158.759,137.659 159.226 C 135.464 161.937,111.475 161.703,109.079 158.947 C 108.645 158.448,107.730 157.919,107.045 157.772 C 104.301 157.181,102.535 155.738,98.271 150.600 C 97.358 149.500,96.396 148.463,96.133 148.295 C 95.219 147.714,94.000 143.627,94.000 141.147 C 94.000 139.371,93.788 138.426,93.207 137.609 C 92.428 136.516,92.411 135.638,92.307 91.057 L 92.200 45.618 91.115 44.533 L 90.030 43.448 67.527 43.424 L 45.024 43.400 43.891 44.353 M89.720 44.758 C 91.218 44.956,91.260 46.183,91.355 92.963 C 91.419 124.424,91.583 138.870,91.895 140.400 C 92.549 143.614,94.996 149.139,96.492 150.778 C 100.687 155.376,102.033 156.585,104.173 157.675 C 105.478 158.341,107.188 159.297,107.973 159.800 C 112.368 162.619,126.456 163.435,135.200 161.377 C 144.666 159.149,154.770 148.514,154.795 140.750 C 154.798 139.953,155.041 138.603,155.335 137.750 C 155.768 136.495,155.878 127.765,155.913 91.919 C 155.954 50.935,156.008 47.560,156.638 46.598 C 158.171 44.259,155.878 44.371,201.304 44.427 C 246.836 44.483,246.557 44.470,247.551 46.651 C 248.003 47.645,248.134 75.361,247.798 99.228 C 247.700 106.207,247.792 106.639,249.574 107.588 C 250.472 108.067,250.638 108.001,251.696 106.754 C 253.926 104.123,255.754 102.148,260.356 97.400 C 262.915 94.760,265.526 91.904,266.160 91.054 C 266.793 90.204,268.771 88.018,270.555 86.197 C 272.340 84.376,277.038 79.492,280.995 75.343 C 284.952 71.194,289.108 66.900,290.231 65.800 C 291.354 64.700,293.966 61.910,296.036 59.599 C 304.540 50.107,310.069 44.953,312.021 44.697 C 316.752 44.077,354.909 44.774,355.706 45.496 C 359.070 48.540,357.673 55.992,353.025 59.801 C 352.020 60.624,350.164 62.378,348.899 63.698 C 347.635 65.017,339.760 73.002,331.400 81.442 C 323.040 89.882,313.230 99.883,309.600 103.666 C 301.285 112.333,301.335 112.283,296.751 116.600 C 289.882 123.071,289.770 122.580,300.532 133.160 C 305.430 137.974,313.361 146.047,316.200 149.108 C 318.180 151.242,320.788 153.891,321.995 154.994 C 323.203 156.097,326.173 159.058,328.595 161.574 C 331.018 164.089,333.442 166.519,333.981 166.974 C 334.521 167.428,335.331 168.232,335.781 168.759 C 336.232 169.287,337.115 170.187,337.745 170.759 C 338.375 171.332,340.535 173.499,342.545 175.575 C 344.555 177.651,348.518 181.632,351.351 184.421 C 357.694 190.665,357.157 188.129,357.216 212.155 L 357.262 230.588 356.165 231.532 L 355.068 232.475 329.746 232.338 C 304.696 232.201,304.414 232.209,303.606 233.016 C 302.572 234.050,302.265 320.941,303.290 322.486 C 304.195 323.848,306.759 323.983,331.280 323.955 C 344.415 323.941,355.351 324.046,355.583 324.190 C 357.345 325.278,357.347 325.323,357.223 350.306 L 357.200 354.812 355.900 355.604 C 354.613 356.389,353.603 356.397,255.600 356.381 C 142.981 356.363,153.627 356.713,151.408 352.949 C 149.885 350.365,147.940 347.672,146.733 346.477 C 145.769 345.523,143.919 343.021,141.350 339.200 C 140.537 337.990,139.630 336.856,139.336 336.680 C 139.041 336.504,138.503 335.784,138.139 335.080 C 137.776 334.376,136.877 333.080,136.143 332.200 C 134.262 329.947,132.256 327.334,130.614 325.000 C 129.840 323.900,128.620 322.256,127.903 321.348 C 127.187 320.439,126.060 318.935,125.400 318.005 C 124.740 317.076,123.558 315.569,122.773 314.658 C 121.988 313.746,120.916 312.370,120.392 311.600 C 119.868 310.830,119.259 310.077,119.040 309.928 C 118.821 309.778,118.092 308.767,117.421 307.681 C 115.138 303.989,112.381 300.611,111.089 299.921 C 109.064 298.841,92.831 298.860,91.850 299.945 C 91.231 300.629,91.182 302.885,91.245 327.840 L 91.314 354.990 90.157 355.693 C 88.531 356.681,45.932 356.788,44.533 355.808 L 43.688 355.216 43.630 279.219 C 43.573 203.855,43.579 203.209,44.376 201.648 L 45.179 200.074 48.489 199.820 C 50.310 199.681,58.280 199.687,66.200 199.835 C 74.120 199.982,82.040 200.048,83.800 199.980 C 88.179 199.812,90.346 199.857,94.900 200.208 C 99.001 200.525,100.533 199.929,96.900 199.430 C 93.079 198.906,92.867 198.815,92.595 197.576 C 92.371 196.558,92.039 196.319,90.069 195.758 C 88.821 195.402,86.540 194.526,85.000 193.809 C 83.460 193.093,81.480 192.281,80.600 192.004 C 79.720 191.727,78.460 191.099,77.800 190.607 C 77.140 190.115,75.488 189.151,74.129 188.465 C 72.770 187.779,71.535 187.019,71.385 186.776 C 71.235 186.533,70.187 185.738,69.056 185.010 C 65.742 182.877,55.238 172.143,53.779 169.398 C 53.288 168.475,52.237 166.869,51.443 165.829 C 50.649 164.790,50.000 163.730,50.000 163.475 C 50.000 163.220,49.564 162.109,49.031 161.006 C 48.498 159.903,47.410 156.750,46.613 154.000 C 45.817 151.250,44.867 148.010,44.504 146.800 C 43.909 144.820,43.829 139.854,43.705 97.045 C 43.564 48.541,43.638 45.666,45.048 44.877 C 45.489 44.630,87.897 44.517,89.720 44.758 M248.602 138.470 C 247.508 139.330,247.499 139.379,247.768 142.570 C 247.919 144.347,247.994 146.520,247.936 147.400 C 247.878 148.280,247.846 150.080,247.865 151.400 C 248.006 161.560,247.927 194.480,247.758 195.600 C 247.586 196.743,247.762 197.254,248.716 198.384 L 249.886 199.768 274.443 199.888 C 287.949 199.953,300.198 200.116,301.662 200.248 C 305.880 200.629,307.335 197.737,304.325 194.951 C 303.376 194.074,301.645 192.249,300.478 190.898 C 299.310 189.546,298.003 188.328,297.573 188.192 C 297.143 188.055,296.539 187.461,296.232 186.872 C 295.924 186.282,293.361 183.447,290.536 180.571 C 284.362 174.284,277.334 166.808,272.609 161.500 C 270.699 159.355,269.008 157.600,268.851 157.600 C 268.693 157.600,266.981 155.845,265.045 153.700 C 263.109 151.555,260.147 148.342,258.463 146.561 C 254.790 142.677,253.399 141.092,251.913 139.100 C 250.621 137.367,250.124 137.273,248.602 138.470 M251.585 140.371 C 252.026 141.235,252.740 142.054,253.173 142.191 C 253.605 142.329,254.084 142.837,254.236 143.320 C 254.389 143.804,256.018 145.689,257.857 147.509 C 259.696 149.330,261.200 150.962,261.200 151.138 C 261.200 151.313,262.377 152.704,263.816 154.228 C 265.255 155.753,266.664 157.270,266.947 157.600 C 267.229 157.930,268.257 158.954,269.230 159.876 C 270.204 160.798,271.990 162.647,273.200 163.984 C 274.410 165.322,276.210 167.272,277.200 168.318 C 278.190 169.364,280.350 171.722,282.000 173.557 C 283.650 175.392,285.360 177.241,285.800 177.666 C 286.240 178.091,287.905 179.684,289.500 181.205 C 291.095 182.727,292.401 184.114,292.403 184.286 C 292.404 184.459,292.952 184.911,293.620 185.292 C 294.289 185.672,295.027 186.533,295.261 187.204 C 295.495 187.875,296.187 188.683,296.797 188.999 C 297.408 189.315,298.366 190.344,298.925 191.287 C 299.484 192.229,300.945 193.792,302.171 194.760 C 303.397 195.728,304.400 196.735,304.400 196.999 C 304.400 197.898,301.391 198.926,299.725 198.597 C 298.886 198.430,287.350 198.261,274.089 198.220 L 249.978 198.146 249.366 197.272 C 249.029 196.792,248.850 196.243,248.967 196.053 C 249.085 195.863,249.160 183.939,249.134 169.554 C 249.082 140.662,249.087 140.071,249.374 139.323 C 249.758 138.322,250.789 138.810,251.585 140.371 M199.218 162.179 C 198.958 162.492,198.217 162.864,197.572 163.006 C 196.928 163.148,196.400 163.388,196.400 163.541 C 196.400 163.990,192.192 170.478,190.913 172.000 C 190.266 172.770,189.153 174.261,188.440 175.313 C 187.727 176.365,186.443 177.690,185.586 178.257 C 184.729 178.824,183.574 179.883,183.019 180.611 C 181.695 182.346,175.777 186.897,173.107 188.234 C 171.948 188.814,170.640 189.617,170.200 190.018 C 168.842 191.257,162.784 194.066,159.000 195.211 C 157.020 195.810,154.500 196.680,153.400 197.144 C 152.300 197.607,149.915 198.369,148.100 198.837 C 142.582 200.259,144.330 200.900,156.169 201.793 C 161.884 202.224,164.583 202.603,166.282 203.213 C 167.557 203.670,169.902 204.301,171.494 204.614 C 174.255 205.158,175.785 205.716,178.000 206.989 C 178.550 207.305,180.980 208.481,183.400 209.603 C 185.820 210.725,188.340 212.154,189.000 212.778 C 189.660 213.403,190.961 214.295,191.892 214.761 C 192.822 215.227,193.839 216.102,194.151 216.705 C 194.926 218.203,195.909 218.972,197.800 219.557 C 198.680 219.829,199.651 220.154,199.957 220.278 C 200.424 220.468,200.470 219.702,200.240 215.552 C 199.897 209.343,199.890 168.796,200.231 164.950 C 200.489 162.049,200.133 161.076,199.218 162.179 M197.826 167.400 C 198.318 168.578,198.397 172.123,198.324 189.700 C 198.276 201.195,198.280 212.038,198.332 213.795 C 198.469 218.388,197.176 219.328,195.209 216.068 C 194.500 214.894,193.190 213.752,190.800 212.226 C 188.930 211.031,186.950 209.715,186.400 209.301 C 185.850 208.886,184.140 208.134,182.600 207.628 C 181.060 207.123,179.438 206.378,178.995 205.974 C 177.877 204.954,175.765 204.128,173.400 203.789 C 172.300 203.631,170.422 203.045,169.227 202.487 C 167.307 201.591,166.302 201.437,160.627 201.174 C 148.927 200.630,146.587 200.139,151.284 199.215 C 152.650 198.947,154.765 198.225,155.984 197.612 C 157.203 196.999,159.640 196.105,161.400 195.625 C 163.160 195.146,165.050 194.454,165.600 194.088 C 166.150 193.721,167.500 193.001,168.600 192.487 C 169.700 191.972,171.140 191.044,171.800 190.423 C 172.460 189.803,173.630 189.094,174.401 188.849 C 175.171 188.604,176.790 187.593,177.998 186.602 C 179.206 185.611,180.352 184.800,180.544 184.800 C 180.736 184.800,182.167 183.495,183.724 181.900 C 185.280 180.305,186.916 178.819,187.359 178.597 C 187.802 178.376,188.496 177.564,188.902 176.793 C 189.308 176.022,190.128 175.111,190.725 174.769 C 191.322 174.426,192.407 173.078,193.136 171.773 C 196.780 165.248,196.886 165.150,197.826 167.400 M94.094 232.291 C 91.181 232.557,91.241 232.208,91.181 249.319 C 91.135 262.369,91.213 264.560,91.749 265.379 L 92.371 266.327 112.493 266.369 C 141.754 266.431,145.850 266.055,150.528 262.875 C 156.228 259.000,157.717 256.179,157.754 249.188 C 157.798 240.777,154.461 237.120,142.881 232.892 C 141.544 232.404,98.655 231.876,94.094 232.291 M205.716 232.893 C 204.956 233.733,205.242 237.214,206.261 239.530 C 207.402 242.123,207.472 251.590,206.393 257.400 C 205.903 260.040,205.282 263.410,205.012 264.890 C 204.721 266.491,204.100 268.190,203.478 269.090 C 202.903 269.920,202.148 271.409,201.799 272.399 C 201.451 273.388,200.663 274.738,200.048 275.399 C 199.433 276.059,198.457 277.430,197.880 278.445 C 196.855 280.247,196.399 280.692,191.779 284.400 C 190.545 285.390,188.937 286.698,188.206 287.307 C 187.475 287.917,186.032 288.669,185.000 288.980 C 183.967 289.291,182.443 289.995,181.613 290.544 C 180.783 291.093,178.545 292.018,176.639 292.599 C 174.734 293.181,172.416 293.989,171.488 294.395 C 170.559 294.801,168.928 295.262,167.863 295.418 C 163.650 296.036,163.292 297.598,166.476 301.481 C 167.204 302.370,168.853 304.560,170.139 306.348 C 171.425 308.137,172.635 309.600,172.827 309.600 C 173.019 309.600,173.811 310.545,174.589 311.700 C 175.366 312.855,176.640 314.610,177.419 315.600 C 178.198 316.590,179.413 318.180,180.118 319.134 C 180.823 320.087,181.994 321.559,182.720 322.404 C 183.446 323.250,184.436 324.482,184.920 325.143 C 185.404 325.804,187.105 328.048,188.700 330.129 C 190.295 332.211,191.600 334.086,191.600 334.296 C 191.600 335.257,196.782 340.708,197.869 340.890 C 198.491 340.995,199.270 341.152,199.600 341.240 C 200.204 341.401,200.310 337.949,199.941 330.200 C 199.744 326.070,202.278 322.945,205.478 323.373 C 209.406 323.898,248.882 324.068,251.284 323.570 C 255.172 322.765,254.806 327.518,254.825 277.599 C 254.839 239.201,254.764 233.393,254.251 232.879 C 253.272 231.900,206.602 231.914,205.716 232.893 M142.218 234.021 C 143.107 234.445,145.089 235.218,146.621 235.739 C 149.578 236.745,151.085 237.903,155.085 242.245 C 159.633 247.181,156.776 257.631,149.743 261.786 C 148.613 262.454,147.264 263.301,146.745 263.668 C 144.724 265.097,94.130 265.888,92.753 264.512 C 92.160 263.920,92.208 236.277,92.804 235.242 C 93.872 233.386,93.810 233.406,99.285 233.200 C 113.002 232.684,140.514 233.210,142.218 234.021 M251.839 233.386 C 254.077 233.797,254.000 232.188,254.000 278.586 L 254.000 321.534 252.012 321.960 C 249.775 322.440,212.055 322.599,206.292 322.152 L 202.785 321.881 200.788 324.040 C 198.160 326.882,197.751 328.383,198.423 332.725 C 199.145 337.395,197.770 340.495,196.067 338.037 C 195.700 337.507,194.853 336.517,194.186 335.837 C 193.518 335.156,192.716 333.980,192.405 333.223 C 191.889 331.968,191.187 331.043,187.115 326.253 C 186.392 325.403,185.520 324.176,185.177 323.529 C 184.834 322.881,184.126 322.137,183.602 321.875 C 183.055 321.602,182.507 320.848,182.314 320.102 C 182.129 319.388,181.524 318.506,180.969 318.143 C 180.413 317.779,179.701 316.982,179.385 316.372 C 179.070 315.761,178.085 314.422,177.196 313.396 C 176.308 312.370,175.332 310.933,175.027 310.204 C 174.722 309.474,174.080 308.752,173.600 308.600 C 173.110 308.444,172.464 307.682,172.127 306.861 C 171.797 306.058,171.083 304.950,170.542 304.400 C 169.081 302.918,165.200 297.950,165.200 297.563 C 165.200 296.974,166.535 296.515,168.934 296.280 C 170.263 296.149,172.330 295.547,173.734 294.882 C 175.090 294.239,177.460 293.405,179.000 293.030 C 180.615 292.636,182.223 291.956,182.800 291.423 C 183.350 290.914,184.771 290.183,185.957 289.798 C 187.144 289.413,188.655 288.581,189.316 287.949 C 189.978 287.317,190.661 286.800,190.835 286.800 C 191.009 286.800,192.017 286.087,193.076 285.215 C 194.134 284.343,195.596 283.146,196.324 282.555 C 197.052 281.964,198.106 280.562,198.667 279.440 C 199.227 278.318,200.200 276.987,200.828 276.483 C 201.553 275.900,202.228 274.747,202.678 273.321 C 203.067 272.087,203.867 270.595,204.455 270.006 C 205.269 269.193,205.594 268.368,205.810 266.568 C 205.967 265.266,206.613 262.622,207.247 260.694 C 208.376 257.262,208.400 257.004,208.400 248.425 L 208.400 239.661 207.400 238.473 C 206.621 237.547,206.400 236.836,206.400 235.258 L 206.400 233.231 209.900 233.116 C 215.816 232.920,250.523 233.144,251.839 233.386 " stroke="none" fill="#787793" fill-rule="evenodd"></path><path id="path3" d="M0.000 1.000 L 0.000 2.000 200.000 2.000 L 400.000 2.000 400.000 1.000 L 400.000 0.000 200.000 0.000 L 0.000 0.000 0.000 1.000 M45.082 44.900 C 44.713 45.175,44.316 46.030,44.200 46.800 L 43.990 48.200 44.495 46.929 C 45.259 45.006,45.225 45.016,51.932 44.776 L 58.200 44.552 51.976 44.476 C 47.519 44.422,45.562 44.542,45.082 44.900 M86.102 44.697 C 89.897 44.864,90.258 45.263,91.010 50.105 C 91.479 53.129,91.524 53.233,91.560 51.373 C 91.665 46.025,90.304 44.360,85.926 44.480 L 83.000 44.561 86.102 44.697 M158.337 45.010 C 156.207 46.166,155.662 47.737,155.704 52.600 C 155.748 57.560,156.277 56.553,156.353 51.367 C 156.398 48.298,156.469 48.054,157.754 46.567 L 159.108 45.000 186.854 44.795 L 214.600 44.589 187.000 44.511 C 163.594 44.444,159.238 44.520,158.337 45.010 M235.408 44.781 C 244.384 45.037,246.041 45.435,247.205 47.609 C 247.446 48.060,247.635 56.177,247.691 68.474 L 247.782 88.600 247.991 68.600 C 248.267 42.162,249.440 44.344,235.027 44.470 L 227.000 44.540 235.408 44.781 M325.282 44.696 C 326.758 44.773,329.278 44.773,330.882 44.697 C 332.487 44.621,331.280 44.558,328.200 44.558 C 325.120 44.557,323.807 44.619,325.282 44.696 M355.509 45.707 C 356.213 46.536,356.874 47.616,356.979 48.107 C 357.083 48.598,357.245 49.360,357.338 49.800 C 357.457 50.363,357.521 50.268,357.554 49.480 C 357.612 48.069,356.799 46.487,355.353 45.200 C 354.336 44.294,354.350 44.342,355.509 45.707 M351.105 45.083 C 351.602 45.179,352.322 45.175,352.705 45.075 C 353.087 44.975,352.680 44.896,351.800 44.901 C 350.920 44.905,350.607 44.987,351.105 45.083 M306.581 48.500 C 303.185 52.081,301.835 53.600,302.049 53.600 C 302.162 53.600,303.740 51.980,305.556 50.000 C 307.372 48.020,308.793 46.400,308.715 46.400 C 308.637 46.400,307.676 47.345,306.581 48.500 M43.793 94.600 C 43.793 120.120,43.841 130.619,43.900 117.931 C 43.959 105.243,43.959 84.363,43.900 71.531 C 43.841 58.699,43.793 69.080,43.793 94.600 M353.978 58.700 L 352.600 60.200 354.100 58.822 C 355.496 57.538,355.784 57.200,355.478 57.200 C 355.412 57.200,354.737 57.875,353.978 58.700 M289.375 66.500 L 288.200 67.800 289.500 66.625 C 290.215 65.979,290.800 65.394,290.800 65.325 C 290.800 65.016,290.470 65.288,289.375 66.500 M286.181 70.100 L 284.600 71.800 286.300 70.219 C 287.235 69.349,288.000 68.584,288.000 68.519 C 288.000 68.216,287.652 68.519,286.181 70.100 M341.800 70.676 C 340.700 71.687,340.340 72.147,341.000 71.697 C 342.124 70.930,344.344 68.778,343.970 68.818 C 343.876 68.828,342.900 69.664,341.800 70.676 M280.589 75.700 L 277.800 78.600 280.700 75.811 C 282.295 74.277,283.600 72.972,283.600 72.911 C 283.600 72.617,283.180 73.006,280.589 75.700 M337.951 74.431 L 336.200 76.062 338.100 74.546 C 339.145 73.713,340.000 72.979,340.000 72.915 C 340.000 72.607,339.563 72.930,337.951 74.431 M334.185 78.500 L 332.200 80.600 334.300 78.615 C 336.251 76.771,336.583 76.400,336.285 76.400 C 336.222 76.400,335.277 77.345,334.185 78.500 M275.586 81.100 L 273.400 83.400 275.700 81.214 C 276.965 80.011,278.000 78.976,278.000 78.914 C 278.000 78.617,277.618 78.963,275.586 81.100 M266.975 90.100 L 265.800 91.400 267.100 90.225 C 267.815 89.579,268.400 88.994,268.400 88.925 C 268.400 88.616,268.070 88.888,266.975 90.100 M314.167 98.500 C 311.987 100.826,311.016 102.000,311.269 102.000 C 311.362 102.000,312.565 100.740,313.944 99.200 C 316.874 95.927,317.027 95.448,314.167 98.500 M309.429 103.562 L 308.258 105.000 309.609 103.713 C 310.351 103.005,310.878 102.358,310.779 102.275 C 310.681 102.192,310.073 102.771,309.429 103.562 M305.000 107.935 C 302.133 110.589,297.366 115.795,299.599 113.833 C 301.572 112.098,306.673 106.783,306.335 106.812 C 306.261 106.818,305.660 107.323,305.000 107.935 M155.765 127.200 C 155.765 131.050,155.825 132.625,155.898 130.700 C 155.971 128.775,155.971 125.625,155.898 123.700 C 155.825 121.775,155.765 123.350,155.765 127.200 M306.785 139.714 C 308.867 141.851,310.645 143.600,310.736 143.600 C 311.013 143.600,305.102 137.456,304.015 136.614 C 303.457 136.182,304.703 137.577,306.785 139.714 M99.600 154.532 C 100.810 155.814,102.520 157.231,103.400 157.680 C 104.280 158.130,105.990 159.094,107.200 159.824 C 108.591 160.662,110.136 161.229,111.400 161.364 L 113.400 161.578 111.156 161.056 C 109.921 160.769,108.391 160.167,107.756 159.718 C 107.120 159.270,105.610 158.412,104.400 157.812 C 103.190 157.212,101.120 155.704,99.800 154.460 L 97.400 152.200 99.600 154.532 M247.444 153.400 C 247.773 154.871,248.002 155.190,247.994 154.167 C 247.991 153.745,247.805 153.130,247.582 152.800 C 247.285 152.362,247.248 152.524,247.444 153.400 M264.000 152.525 C 264.000 152.594,264.585 153.179,265.300 153.825 L 266.600 155.000 265.425 153.700 C 264.330 152.488,264.000 152.216,264.000 152.525 M323.318 156.548 C 324.374 157.546,326.053 159.226,327.050 160.282 L 328.864 162.200 327.357 160.311 C 326.528 159.273,324.848 157.592,323.625 156.577 L 321.400 154.732 323.318 156.548 M266.400 155.325 C 266.400 155.394,266.985 155.979,267.700 156.625 L 269.000 157.800 267.825 156.500 C 266.730 155.288,266.400 155.016,266.400 155.325 M248.093 156.800 C 248.093 157.570,248.175 157.885,248.276 157.500 C 248.376 157.115,248.376 156.485,248.276 156.100 C 248.175 155.715,248.093 156.030,248.093 156.800 M142.522 157.960 C 140.940 158.752,139.511 159.539,139.346 159.709 C 138.818 160.257,144.578 157.549,145.186 156.964 C 145.924 156.253,145.962 156.239,142.522 157.960 M247.724 160.600 C 247.726 161.920,247.801 162.412,247.890 161.693 C 247.979 160.974,247.977 159.894,247.886 159.293 C 247.795 158.692,247.722 159.280,247.724 160.600 M49.803 162.850 C 50.161 164.028,51.279 165.824,52.637 167.400 C 53.974 168.952,53.265 167.434,51.539 165.052 C 50.913 164.188,50.400 163.248,50.400 162.964 C 50.400 162.680,50.201 162.324,49.957 162.174 C 49.654 161.986,49.605 162.199,49.803 162.850 M283.471 173.350 C 285.422 175.412,287.645 177.617,288.410 178.250 C 289.174 178.882,287.646 177.195,285.012 174.500 C 282.379 171.805,280.157 169.600,280.073 169.600 C 279.990 169.600,281.519 171.287,283.471 173.350 M342.200 175.600 C 343.506 176.920,344.665 178.000,344.775 178.000 C 344.885 178.000,343.906 176.920,342.600 175.600 C 341.294 174.280,340.135 173.200,340.025 173.200 C 339.915 173.200,340.894 174.280,342.200 175.600 M247.762 180.600 C 247.762 184.120,247.824 185.506,247.898 183.681 C 247.972 181.856,247.972 178.976,247.897 177.281 C 247.822 175.586,247.761 177.080,247.762 180.600 M199.956 180.900 C 199.846 193.023,199.928 212.461,200.090 212.623 C 200.187 212.721,200.309 204.521,200.359 194.400 C 200.410 184.280,200.350 176.000,200.226 176.000 C 200.102 176.000,199.980 178.205,199.956 180.900 M181.578 181.900 L 180.200 183.400 181.700 182.022 C 182.525 181.263,183.200 180.588,183.200 180.522 C 183.200 180.216,182.862 180.504,181.578 181.900 M66.400 183.000 C 67.146 183.770,67.847 184.400,67.957 184.400 C 68.067 184.400,67.546 183.770,66.800 183.000 C 66.054 182.230,65.353 181.600,65.243 181.600 C 65.133 181.600,65.654 182.230,66.400 183.000 M350.600 184.000 C 351.906 185.320,353.065 186.400,353.175 186.400 C 353.285 186.400,352.306 185.320,351.000 184.000 C 349.694 182.680,348.535 181.600,348.425 181.600 C 348.315 181.600,349.294 182.680,350.600 184.000 M247.714 189.000 C 247.717 190.100,247.795 190.503,247.887 189.895 C 247.979 189.286,247.977 188.386,247.882 187.895 C 247.787 187.403,247.711 187.900,247.714 189.000 M354.000 187.325 C 354.000 187.394,354.585 187.979,355.300 188.625 L 356.600 189.800 355.425 188.500 C 354.330 187.288,354.000 187.016,354.000 187.325 M170.193 189.611 C 170.053 189.838,168.333 190.829,166.369 191.815 C 162.444 193.787,161.427 194.625,165.100 192.862 C 169.267 190.862,171.796 189.200,170.673 189.200 C 170.549 189.200,170.333 189.385,170.193 189.611 M356.901 194.200 C 356.905 195.080,356.987 195.393,357.083 194.895 C 357.179 194.398,357.175 193.678,357.075 193.295 C 356.975 192.913,356.896 193.320,356.901 194.200 M46.896 199.893 C 43.307 200.216,43.586 194.720,43.697 262.884 L 43.795 322.600 43.997 262.600 C 44.154 216.207,44.311 202.406,44.691 201.743 C 45.457 200.406,50.346 199.887,60.292 200.086 C 64.862 200.178,67.340 200.129,65.800 199.976 C 62.868 199.686,49.831 199.629,46.896 199.893 M259.300 199.891 C 260.125 199.978,261.475 199.978,262.300 199.891 C 263.125 199.805,262.450 199.734,260.800 199.734 C 259.150 199.734,258.475 199.805,259.300 199.891 M272.100 199.897 C 273.585 199.974,276.015 199.974,277.500 199.897 C 278.985 199.820,277.770 199.757,274.800 199.757 C 271.830 199.757,270.615 199.820,272.100 199.897 M266.100 200.287 C 266.705 200.378,267.695 200.378,268.300 200.287 C 268.905 200.195,268.410 200.120,267.200 200.120 C 265.990 200.120,265.495 200.195,266.100 200.287 M356.920 226.400 C 356.920 227.610,356.995 228.105,357.087 227.500 C 357.178 226.895,357.178 225.905,357.087 225.300 C 356.995 224.695,356.920 225.190,356.920 226.400 M357.232 229.638 C 357.127 231.745,356.822 231.784,338.458 232.008 L 321.400 232.217 338.294 232.308 L 355.187 232.400 356.451 231.271 C 357.190 230.610,357.621 229.906,357.489 229.571 C 357.308 229.114,357.257 229.128,357.232 229.638 M101.705 232.287 C 102.314 232.379,103.214 232.377,103.705 232.282 C 104.197 232.187,103.700 232.111,102.600 232.114 C 101.500 232.117,101.097 232.195,101.705 232.287 M125.900 232.298 C 127.715 232.372,130.685 232.372,132.500 232.298 C 134.315 232.223,132.830 232.163,129.200 232.163 C 125.570 232.163,124.085 232.223,125.900 232.298 M137.100 232.282 C 137.595 232.378,138.405 232.378,138.900 232.282 C 139.395 232.187,138.990 232.109,138.000 232.109 C 137.010 232.109,136.605 232.187,137.100 232.282 M222.900 232.299 C 227.025 232.364,233.775 232.364,237.900 232.299 C 242.025 232.234,238.650 232.181,230.400 232.181 C 222.150 232.181,218.775 232.234,222.900 232.299 M313.305 232.287 C 313.914 232.379,314.814 232.377,315.305 232.282 C 315.797 232.187,315.300 232.111,314.200 232.114 C 313.100 232.117,312.697 232.195,313.305 232.287 M154.600 239.600 C 155.459 240.480,156.252 241.200,156.362 241.200 C 156.472 241.200,155.859 240.480,155.000 239.600 C 154.141 238.720,153.348 238.000,153.238 238.000 C 153.128 238.000,153.741 238.720,154.600 239.600 M302.593 278.600 C 302.593 301.040,302.641 310.161,302.700 298.869 C 302.759 287.578,302.759 269.218,302.700 258.069 C 302.641 246.921,302.593 256.160,302.593 278.600 M254.992 279.800 C 254.992 301.800,255.041 310.859,255.100 299.930 C 255.159 289.002,255.159 271.002,255.100 259.930 C 255.041 248.859,254.992 257.800,254.992 279.800 M156.724 242.200 C 156.926 242.640,157.192 243.270,157.314 243.600 C 157.507 244.118,157.541 244.115,157.568 243.576 C 157.586 243.234,157.320 242.604,156.978 242.176 C 156.366 241.412,156.362 241.413,156.724 242.200 M157.701 245.800 C 157.705 246.680,157.787 246.993,157.883 246.495 C 157.979 245.998,157.975 245.278,157.875 244.895 C 157.775 244.513,157.696 244.920,157.701 245.800 M206.953 249.400 C 206.953 252.040,207.018 253.068,207.097 251.684 C 207.175 250.301,207.174 248.141,207.095 246.884 C 207.016 245.628,206.952 246.760,206.953 249.400 M157.701 252.600 C 157.705 253.480,157.787 253.793,157.883 253.295 C 157.979 252.798,157.975 252.078,157.875 251.695 C 157.775 251.313,157.696 251.720,157.701 252.600 M101.200 266.406 C 100.800 266.660,102.257 266.790,105.567 266.794 C 108.298 266.797,110.458 266.735,110.367 266.656 C 109.940 266.286,101.739 266.063,101.200 266.406 M136.291 266.289 C 137.001 266.377,138.261 266.379,139.091 266.292 C 139.921 266.205,139.340 266.133,137.800 266.131 C 136.260 266.129,135.581 266.200,136.291 266.289 M121.500 266.698 C 123.755 266.770,127.445 266.770,129.700 266.698 C 131.955 266.627,130.110 266.569,125.600 266.569 C 121.090 266.569,119.245 266.627,121.500 266.698 M201.200 273.119 C 201.200 273.368,200.622 274.253,199.915 275.086 C 198.763 276.443,198.746 276.496,199.751 275.600 C 201.017 274.472,201.780 273.246,201.432 272.899 C 201.305 272.771,201.200 272.870,201.200 273.119 M195.578 281.100 L 194.200 282.600 195.700 281.222 C 197.096 279.938,197.384 279.600,197.078 279.600 C 197.012 279.600,196.337 280.275,195.578 281.100 M191.000 284.676 C 189.900 285.687,189.540 286.147,190.200 285.697 C 191.324 284.930,193.544 282.778,193.170 282.818 C 193.076 282.828,192.100 283.664,191.000 284.676 M99.113 299.095 C 100.276 299.176,102.076 299.176,103.113 299.093 C 104.151 299.011,103.200 298.945,101.000 298.946 C 98.800 298.947,97.951 299.014,99.113 299.095 M121.200 312.925 C 121.200 312.994,121.785 313.579,122.500 314.225 L 123.800 315.400 122.625 314.100 C 121.530 312.888,121.200 312.616,121.200 312.925 M178.751 317.878 C 179.000 318.360,179.398 318.875,179.635 319.021 C 179.871 319.168,180.372 319.793,180.748 320.411 C 181.602 321.815,183.721 324.418,185.755 326.561 L 187.310 328.200 186.040 326.600 C 185.342 325.720,183.967 324.049,182.985 322.887 C 182.003 321.724,181.193 320.644,181.183 320.487 C 181.174 320.329,180.521 319.480,179.732 318.600 C 178.943 317.720,178.502 317.395,178.751 317.878 M202.085 324.564 C 201.378 325.369,200.805 326.157,200.811 326.314 C 200.817 326.471,201.330 325.987,201.952 325.237 L 203.082 323.875 207.241 324.115 C 209.528 324.247,212.570 324.205,214.000 324.023 C 216.508 323.702,216.459 323.692,212.600 323.730 C 210.400 323.752,207.423 323.620,205.985 323.435 L 203.370 323.100 202.085 324.564 M354.000 323.878 C 354.550 323.970,355.425 324.531,355.944 325.123 C 356.463 325.715,356.751 325.930,356.583 325.600 C 355.913 324.282,355.025 323.603,354.038 323.654 L 353.000 323.709 354.000 323.878 M350.305 324.283 C 350.802 324.379,351.522 324.375,351.905 324.275 C 352.287 324.175,351.880 324.096,351.000 324.101 C 350.120 324.105,349.807 324.187,350.305 324.283 M356.893 333.600 C 356.893 334.370,356.975 334.685,357.076 334.300 C 357.176 333.915,357.176 333.285,357.076 332.900 C 356.975 332.515,356.893 332.830,356.893 333.600 M43.693 344.291 L 43.600 355.182 44.550 355.804 C 45.304 356.298,46.446 356.401,50.050 356.299 L 54.600 356.171 49.962 356.086 C 43.548 355.967,44.039 356.948,43.900 343.976 L 43.786 333.400 43.693 344.291 M90.963 352.793 C 90.611 355.447,90.116 355.760,85.841 356.030 L 82.200 356.260 85.600 356.328 C 90.322 356.424,91.600 355.674,91.600 352.806 C 91.600 350.241,91.302 350.235,90.963 352.793 M356.860 353.251 C 356.819 354.248,356.518 354.909,355.900 355.363 L 355.000 356.023 355.923 355.585 C 357.038 355.056,357.314 354.430,357.090 352.934 C 356.942 351.948,356.912 351.990,356.860 353.251 M156.900 356.276 C 157.285 356.376,157.915 356.376,158.300 356.276 C 158.685 356.175,158.370 356.093,157.600 356.093 C 156.830 356.093,156.515 356.175,156.900 356.276 M229.500 356.300 C 236.595 356.361,248.205 356.361,255.300 356.300 C 262.395 356.239,256.590 356.189,242.400 356.189 C 228.210 356.189,222.405 356.239,229.500 356.300 M349.113 356.295 C 350.276 356.376,352.076 356.376,353.113 356.293 C 354.151 356.211,353.200 356.145,351.000 356.146 C 348.800 356.147,347.951 356.214,349.113 356.295 " stroke="none" fill="#8888b5" fill-rule="evenodd"></path><path id="path4" d="M63.400 44.799 C 53.720 44.909,45.600 45.130,45.355 45.290 C 44.022 46.157,43.964 48.505,44.083 97.600 L 44.200 146.200 45.065 148.600 C 45.541 149.920,46.414 152.800,47.005 155.000 C 47.596 157.200,48.602 159.858,49.240 160.906 C 49.878 161.954,50.400 162.962,50.400 163.146 C 50.400 163.330,50.964 164.258,51.653 165.209 C 52.341 166.160,53.332 167.902,53.853 169.081 C 54.890 171.426,65.497 182.506,68.600 184.485 C 69.480 185.046,70.650 185.905,71.200 186.393 C 71.750 186.881,73.280 187.822,74.600 188.484 C 75.920 189.145,77.360 190.014,77.800 190.413 C 78.240 190.813,79.590 191.527,80.800 192.001 C 82.010 192.474,84.080 193.368,85.400 193.987 C 86.720 194.607,88.821 195.404,90.069 195.759 C 92.039 196.319,92.371 196.558,92.595 197.576 C 92.867 198.815,93.079 198.906,96.900 199.430 C 100.533 199.929,99.001 200.525,94.900 200.208 C 92.755 200.043,90.055 199.912,88.900 199.918 C 87.745 199.924,84.820 199.926,82.400 199.922 C 79.980 199.917,76.515 199.921,74.700 199.930 C 72.885 199.938,66.900 199.957,61.400 199.971 C 48.891 200.004,45.412 200.430,44.585 202.028 C 44.078 203.010,44.000 213.202,44.000 278.918 L 44.000 354.676 44.842 355.438 C 46.067 356.547,87.976 356.632,89.659 355.529 C 91.165 354.542,91.203 353.811,91.194 325.854 C 91.184 295.273,89.824 299.018,100.935 299.018 C 111.919 299.018,110.977 298.534,117.600 307.586 C 118.370 308.639,119.810 310.526,120.800 311.780 C 123.467 315.160,126.212 318.767,127.663 320.800 C 128.369 321.790,129.067 322.690,129.214 322.800 C 129.360 322.910,129.960 323.720,130.547 324.600 C 131.133 325.480,132.249 327.010,133.027 328.000 C 136.469 332.382,142.558 340.505,144.271 343.000 C 144.876 343.880,146.007 345.350,146.785 346.267 C 148.768 348.604,150.294 350.688,151.639 352.893 C 153.828 356.483,143.927 356.133,247.400 356.278 C 347.097 356.417,354.486 356.342,356.024 355.182 L 357.000 354.446 357.085 340.723 L 357.170 327.000 356.208 325.543 L 355.246 324.087 331.323 324.017 C 318.165 323.978,306.605 323.798,305.633 323.615 C 302.105 322.952,302.393 327.172,302.503 277.711 L 302.600 234.022 303.511 233.111 L 304.422 232.200 329.969 232.000 C 353.431 231.816,355.579 231.744,356.279 231.110 C 357.213 230.264,357.626 200.583,356.801 193.600 L 356.351 189.800 351.175 184.600 C 335.838 169.192,300.346 133.161,294.321 126.882 C 290.430 122.827,290.461 122.722,297.846 115.200 C 300.545 112.450,305.798 107.050,309.519 103.200 C 313.240 99.350,316.789 95.750,317.406 95.200 C 318.023 94.650,322.505 90.177,327.364 85.260 C 332.224 80.342,340.712 71.792,346.226 66.260 L 356.252 56.200 356.726 53.833 C 357.961 47.670,356.674 45.016,352.441 44.991 C 351.209 44.984,343.450 44.923,335.200 44.854 C 326.950 44.786,318.070 44.746,315.468 44.765 L 310.735 44.800 306.504 49.100 C 304.177 51.465,301.866 53.673,301.369 54.007 C 300.871 54.341,298.805 56.501,296.778 58.807 C 292.216 63.996,289.854 66.508,278.163 78.600 C 273.058 83.880,268.131 89.100,267.214 90.200 C 266.297 91.300,262.724 95.101,259.273 98.648 C 255.823 102.194,252.454 105.776,251.788 106.609 C 250.654 108.023,250.511 108.088,249.588 107.596 C 247.692 106.586,247.740 107.327,247.650 77.089 C 247.559 46.254,247.644 47.390,245.305 45.936 L 243.800 45.000 201.650 44.888 L 159.500 44.775 158.014 46.337 L 156.528 47.899 156.260 53.193 C 156.113 56.104,155.998 75.985,156.004 97.372 C 156.014 130.474,155.927 136.640,155.418 138.829 C 155.089 140.243,154.625 142.428,154.385 143.685 C 153.352 149.103,147.156 156.276,141.000 159.181 C 131.530 163.650,114.153 163.975,107.200 159.814 C 105.990 159.090,104.280 158.134,103.400 157.691 C 98.842 155.393,92.669 146.208,91.778 140.400 C 91.626 139.410,91.389 118.260,91.251 93.400 C 90.983 45.170,91.003 45.613,89.118 45.028 C 87.984 44.676,80.191 44.607,63.400 44.799 M86.461 46.644 C 90.316 47.029,89.996 42.850,90.028 93.319 C 90.059 141.052,90.125 143.423,91.472 144.877 C 91.943 145.385,92.793 146.954,93.362 148.365 C 93.931 149.776,94.826 151.396,95.352 151.965 C 95.877 152.534,97.182 153.955,98.253 155.122 C 99.376 156.345,101.192 157.743,102.544 158.423 C 103.833 159.072,105.414 160.045,106.056 160.586 C 107.252 161.592,109.488 162.394,111.108 162.398 C 111.607 162.399,113.317 162.864,114.908 163.432 C 119.939 165.226,129.924 165.103,133.800 163.199 C 134.680 162.766,136.395 162.225,137.610 161.997 C 138.826 161.768,140.433 161.180,141.182 160.690 C 141.931 160.201,143.565 159.260,144.813 158.600 C 150.564 155.559,156.000 147.005,156.000 140.995 C 156.000 140.471,156.430 139.233,156.956 138.244 L 157.912 136.446 157.956 92.349 L 157.999 48.253 158.880 47.315 L 159.761 46.377 201.790 46.489 L 243.820 46.600 244.913 47.460 L 246.006 48.320 245.961 70.860 C 245.936 83.257,245.868 96.370,245.810 100.000 C 245.677 108.289,245.992 109.388,248.613 109.781 C 250.594 110.078,252.415 109.090,253.408 107.179 C 253.700 106.618,256.024 104.098,258.572 101.579 C 261.121 99.061,263.294 96.724,263.402 96.387 C 263.510 96.049,264.116 95.468,264.748 95.095 C 265.379 94.721,266.107 93.907,266.365 93.284 C 266.623 92.662,267.366 91.838,268.017 91.454 C 268.668 91.069,269.200 90.581,269.200 90.368 C 269.200 90.155,270.775 88.388,272.700 86.442 C 274.625 84.496,276.967 82.025,277.904 80.952 C 278.842 79.878,281.722 76.796,284.304 74.101 C 288.612 69.608,293.104 64.852,298.800 58.757 C 301.522 55.844,301.287 56.079,306.549 50.999 C 311.282 46.429,310.698 46.690,316.400 46.590 C 341.821 46.145,354.561 46.523,355.420 47.750 C 357.164 50.240,355.746 54.233,351.623 58.441 C 349.813 60.289,347.697 62.520,346.921 63.400 C 345.285 65.254,341.683 68.969,338.079 72.518 C 336.693 73.883,331.794 78.870,327.193 83.600 C 322.592 88.330,318.596 92.419,318.314 92.687 C 317.133 93.807,308.147 102.786,306.282 104.710 C 305.797 105.210,304.860 106.154,304.200 106.808 C 302.752 108.243,303.006 107.983,299.818 111.300 C 298.391 112.785,297.056 114.000,296.851 114.000 C 296.646 114.000,296.113 114.577,295.667 115.282 C 295.221 115.987,294.201 117.022,293.400 117.582 C 292.600 118.142,291.435 119.508,290.812 120.618 L 289.678 122.635 290.627 124.701 C 291.149 125.837,292.077 127.081,292.688 127.465 C 294.080 128.340,298.182 132.445,298.778 133.559 C 299.023 134.017,299.737 134.657,300.364 134.981 C 300.991 135.305,301.879 136.207,302.338 136.985 C 302.797 137.763,303.445 138.400,303.777 138.400 C 304.110 138.400,304.688 138.895,305.062 139.500 C 305.436 140.105,306.835 141.637,308.171 142.904 C 311.313 145.883,313.173 147.843,317.098 152.309 C 319.748 155.323,322.569 158.027,323.693 158.628 C 324.295 158.950,325.041 159.705,325.353 160.307 C 325.665 160.908,326.433 161.867,327.060 162.438 C 327.687 163.008,328.584 163.908,329.054 164.438 C 329.523 164.967,330.783 166.164,331.854 167.098 C 333.733 168.738,334.141 169.124,336.296 171.304 C 338.031 173.057,338.421 173.459,341.198 176.360 C 342.694 177.922,344.113 179.200,344.353 179.200 C 344.593 179.200,345.046 179.816,345.361 180.568 C 345.675 181.320,346.338 182.153,346.833 182.418 C 347.329 182.683,349.099 184.273,350.767 185.950 C 352.435 187.628,354.107 189.180,354.483 189.400 C 355.988 190.282,356.616 228.894,355.154 230.656 C 354.702 231.200,351.707 231.259,329.221 231.161 C 302.836 231.047,302.453 231.068,301.814 232.689 C 301.289 234.017,301.536 323.241,302.066 323.880 C 303.675 325.818,303.334 325.794,329.953 325.896 C 351.799 325.980,354.962 326.068,355.353 326.603 C 355.825 327.249,355.869 350.957,355.403 353.497 C 355.064 355.345,362.242 355.230,254.722 355.110 L 156.044 355.000 154.579 353.600 C 153.772 352.830,152.656 351.480,152.097 350.600 C 151.538 349.720,150.749 348.640,150.344 348.200 C 147.581 345.202,145.990 343.179,145.260 341.734 C 144.797 340.817,143.874 339.680,143.209 339.206 C 142.544 338.733,142.000 338.070,142.000 337.733 C 142.000 337.396,141.359 336.479,140.575 335.695 C 139.791 334.911,138.820 333.624,138.418 332.835 C 138.015 332.046,137.287 331.040,136.801 330.600 C 136.315 330.161,135.492 329.081,134.972 328.200 C 134.452 327.320,133.480 326.090,132.813 325.466 C 132.146 324.842,131.600 324.091,131.600 323.797 C 131.600 323.502,131.084 322.746,130.454 322.116 C 129.824 321.486,129.005 320.382,128.633 319.664 C 128.262 318.946,127.689 318.255,127.359 318.129 C 127.030 318.003,126.119 316.897,125.335 315.672 C 124.552 314.447,123.476 313.103,122.944 312.685 C 122.413 312.267,121.622 311.227,121.188 310.376 C 120.753 309.524,120.040 308.636,119.603 308.402 C 119.167 308.168,118.694 307.516,118.552 306.952 C 118.411 306.389,117.644 305.145,116.848 304.188 C 116.051 303.232,114.913 301.727,114.318 300.844 C 112.456 298.083,111.939 297.963,101.377 297.848 L 92.010 297.746 90.979 298.822 L 89.947 299.899 89.874 327.116 C 89.833 342.085,89.650 354.483,89.467 354.667 C 88.799 355.334,45.618 355.074,45.191 354.400 C 44.688 353.603,44.664 204.809,45.168 203.484 C 45.855 201.677,48.030 201.552,74.869 201.780 C 97.802 201.975,99.530 201.942,101.400 201.268 C 104.332 200.211,103.995 199.603,99.655 198.121 C 97.595 197.418,95.615 196.575,95.254 196.249 C 94.400 195.476,92.681 194.834,90.212 194.365 C 89.119 194.157,87.585 193.544,86.802 193.002 C 86.020 192.459,84.214 191.634,82.790 191.167 C 81.365 190.700,79.490 189.797,78.621 189.159 C 77.753 188.522,76.799 188.000,76.501 188.000 C 75.648 188.000,73.452 186.754,72.882 185.946 C 72.596 185.543,71.584 184.756,70.633 184.198 C 68.857 183.157,63.260 177.795,59.006 173.059 C 57.689 171.594,56.334 170.306,55.994 170.198 C 55.655 170.090,55.023 169.091,54.591 167.977 C 54.159 166.863,53.297 165.362,52.676 164.641 C 51.440 163.206,49.409 157.792,47.610 151.136 C 46.976 148.790,46.129 146.270,45.729 145.536 C 45.038 144.269,44.994 141.795,44.879 97.600 C 44.748 46.828,44.715 47.979,46.316 47.157 C 47.312 46.645,78.513 45.877,82.600 46.264 C 83.260 46.327,84.997 46.497,86.461 46.644 M246.335 136.665 C 246.075 137.289,245.871 139.330,245.882 141.200 C 245.892 143.070,245.895 145.590,245.889 146.800 C 245.883 148.010,245.884 150.170,245.891 151.600 C 246.000 173.652,245.936 193.459,245.750 195.211 C 245.528 197.319,247.755 201.563,249.109 201.610 C 278.179 202.618,308.321 201.635,308.160 199.684 C 308.138 199.418,308.093 198.569,308.060 197.799 C 308.013 196.697,307.565 195.948,305.964 194.299 C 304.845 193.144,303.037 191.176,301.947 189.925 C 300.771 188.576,299.418 187.470,298.621 187.207 C 297.707 186.905,297.196 186.440,297.024 185.752 C 296.884 185.196,296.012 183.977,295.085 183.044 C 294.158 182.111,291.600 179.459,289.400 177.151 C 287.200 174.843,284.035 171.525,282.366 169.777 C 279.870 167.163,275.091 161.827,271.956 158.154 C 270.594 156.558,264.364 150.800,264.000 150.800 C 263.789 150.800,263.249 150.080,262.800 149.200 C 262.351 148.320,261.811 147.600,261.599 147.600 C 261.020 147.600,256.108 142.571,255.829 141.693 C 255.696 141.272,255.126 140.682,254.564 140.381 C 254.001 140.080,253.299 139.253,253.002 138.543 C 251.957 136.043,247.156 134.691,246.335 136.665 M251.913 139.100 C 253.434 141.139,254.837 142.712,258.600 146.600 C 260.360 148.418,262.621 150.782,263.624 151.853 C 270.558 159.257,284.444 173.928,288.600 178.242 C 290.140 179.841,292.390 182.252,293.600 183.600 C 295.756 186.003,297.840 188.202,303.345 193.885 C 306.083 196.712,306.088 196.721,305.624 198.127 C 304.924 200.249,304.367 200.534,301.501 200.239 C 300.125 200.098,292.340 200.027,284.200 200.083 C 267.999 200.194,268.291 200.194,257.499 200.052 L 249.997 199.954 248.899 198.577 L 247.800 197.199 247.721 175.500 C 247.677 163.565,247.632 153.350,247.621 152.800 C 247.417 143.082,247.711 139.170,248.705 138.389 C 250.119 137.277,250.640 137.392,251.913 139.100 M199.299 156.500 C 199.080 156.775,198.583 157.630,198.195 158.400 C 197.808 159.170,196.966 160.430,196.325 161.200 C 194.665 163.194,191.720 167.739,191.052 169.338 C 190.740 170.084,190.146 170.944,189.732 171.248 C 189.317 171.551,188.393 172.725,187.676 173.856 C 186.960 174.986,185.633 176.401,184.728 177.000 C 183.823 177.599,181.804 179.355,180.241 180.903 C 178.679 182.450,176.740 184.133,175.934 184.642 C 175.127 185.151,174.349 185.759,174.204 185.993 C 174.060 186.227,172.743 186.962,171.279 187.626 C 169.814 188.290,168.253 189.173,167.808 189.588 C 167.364 190.003,165.980 190.722,164.733 191.187 C 163.486 191.652,162.018 192.385,161.471 192.816 C 160.923 193.247,159.126 193.857,157.477 194.173 C 155.828 194.488,153.563 195.210,152.444 195.778 C 151.324 196.345,149.121 197.080,147.547 197.411 C 138.299 199.357,139.665 201.681,150.484 202.406 C 153.628 202.617,157.280 202.870,158.600 202.969 C 159.920 203.067,162.080 203.591,163.400 204.133 C 164.720 204.674,167.510 205.435,169.600 205.823 C 171.690 206.211,173.850 206.836,174.400 207.212 C 174.950 207.588,176.570 208.314,178.000 208.824 C 179.430 209.334,181.143 210.157,181.807 210.653 C 182.471 211.148,183.890 211.788,184.961 212.074 C 186.301 212.432,187.203 212.982,187.856 213.837 C 188.377 214.521,189.515 215.401,190.384 215.793 C 191.253 216.185,192.438 217.189,193.017 218.024 C 193.595 218.859,195.403 220.443,197.033 221.545 C 200.170 223.664,200.519 223.674,201.548 221.669 C 202.273 220.258,201.856 159.167,201.111 157.500 C 200.406 155.922,199.958 155.674,199.299 156.500 M200.298 191.262 C 200.387 214.645,200.308 220.428,199.904 220.261 C 199.627 220.146,198.680 219.829,197.800 219.557 C 195.909 218.972,194.926 218.203,194.151 216.705 C 193.839 216.102,192.822 215.221,191.892 214.749 C 190.961 214.277,189.660 213.434,189.000 212.876 C 186.949 211.143,174.886 205.574,171.801 204.938 C 170.261 204.620,167.560 203.901,165.800 203.341 C 163.406 202.580,160.837 202.185,155.600 201.773 C 144.358 200.889,142.683 200.233,148.100 198.837 C 149.915 198.369,152.300 197.611,153.400 197.152 C 154.500 196.694,156.930 195.814,158.800 195.198 C 160.670 194.582,164.000 193.084,166.200 191.870 C 168.400 190.655,171.280 189.082,172.600 188.375 C 175.708 186.711,179.039 184.171,182.896 180.526 C 184.598 178.917,186.165 177.600,186.376 177.600 C 186.588 177.600,187.340 176.745,188.048 175.700 C 188.756 174.655,189.979 173.057,190.767 172.148 C 192.156 170.548,195.772 165.060,196.237 163.847 C 196.364 163.518,196.979 163.136,197.606 162.999 C 198.232 162.861,198.963 162.486,199.229 162.165 C 200.148 161.058,200.188 162.157,200.298 191.262 M91.689 231.325 C 89.994 232.082,89.946 232.566,89.925 249.166 C 89.903 265.885,89.960 266.473,91.743 267.952 C 92.793 268.824,138.951 268.391,140.887 267.491 C 141.705 267.111,143.067 266.800,143.915 266.800 C 146.244 266.800,149.638 265.649,151.103 264.363 C 151.822 263.732,152.903 262.954,153.505 262.634 C 157.585 260.469,158.980 256.552,158.713 248.000 C 158.464 239.986,155.938 236.157,149.605 234.194 C 149.058 234.025,147.978 233.472,147.205 232.966 C 146.432 232.460,144.990 231.858,144.000 231.628 C 141.830 231.123,92.777 230.839,91.689 231.325 M205.602 231.278 C 204.145 231.816,203.617 233.205,204.037 235.400 C 204.248 236.500,204.397 238.120,204.370 239.000 C 204.343 239.880,204.539 242.040,204.806 243.800 C 205.442 247.984,205.076 256.482,204.015 262.177 C 203.567 264.585,203.200 266.582,203.200 266.616 C 203.200 266.650,202.847 267.084,202.416 267.582 C 201.985 268.079,201.359 269.425,201.025 270.572 C 200.692 271.720,200.036 273.006,199.568 273.429 C 199.100 273.853,198.277 274.950,197.739 275.869 C 196.625 277.769,193.893 280.568,190.584 283.200 C 189.339 284.190,187.771 285.495,187.100 286.101 C 186.429 286.706,185.143 287.400,184.242 287.643 C 182.447 288.126,179.990 289.301,178.412 290.430 C 177.856 290.829,175.795 291.529,173.834 291.986 C 171.873 292.443,169.713 293.151,169.034 293.560 C 168.355 293.968,167.110 294.425,166.268 294.576 C 163.951 294.988,161.589 297.276,162.459 298.264 C 162.815 298.669,163.483 299.748,163.942 300.662 C 164.402 301.576,165.204 302.660,165.725 303.070 C 166.247 303.480,166.908 304.262,167.194 304.808 C 167.715 305.799,168.769 307.145,171.816 310.710 C 172.704 311.749,173.928 313.374,174.534 314.320 C 175.141 315.266,175.907 316.143,176.236 316.269 C 176.565 316.395,177.169 317.151,177.578 317.949 C 177.987 318.747,178.790 319.836,179.361 320.370 C 179.932 320.903,180.400 321.546,180.400 321.798 C 180.400 322.050,180.989 322.963,181.708 323.828 C 182.428 324.693,183.502 326.120,184.096 327.000 C 184.690 327.880,185.537 328.824,185.978 329.098 C 186.420 329.371,187.150 330.317,187.600 331.200 C 188.050 332.083,188.788 333.029,189.238 333.302 C 189.689 333.576,190.297 334.365,190.590 335.056 C 191.974 338.322,198.372 344.761,200.264 344.792 C 201.835 344.818,202.360 341.633,201.925 334.720 C 201.525 328.366,201.542 327.988,202.284 326.969 L 203.064 325.899 227.832 325.849 C 254.700 325.796,254.412 325.819,255.595 323.609 C 255.879 323.078,256.023 308.325,256.043 277.726 L 256.072 232.626 255.192 231.913 C 254.686 231.503,253.607 231.187,252.656 231.168 C 242.799 230.981,206.178 231.066,205.602 231.278 M146.730 234.359 C 155.674 238.277,157.994 241.339,157.998 249.236 C 158.002 256.830,155.532 260.555,147.723 264.734 C 143.214 267.147,93.258 267.681,91.719 265.332 C 90.817 263.956,90.897 234.722,91.806 233.335 C 92.609 232.110,92.529 232.113,118.800 232.160 L 141.800 232.200 146.730 234.359 M254.286 232.914 C 255.290 233.918,255.636 320.676,254.641 322.193 C 253.559 323.845,251.811 323.960,226.690 324.035 L 202.790 324.106 201.391 326.013 C 200.146 327.709,199.997 328.177,200.039 330.260 C 200.247 340.467,200.209 341.402,199.600 341.240 C 199.270 341.152,198.491 340.995,197.869 340.890 C 196.731 340.699,191.600 335.236,191.600 334.215 C 191.600 333.960,190.787 332.773,189.794 331.576 C 188.801 330.379,187.046 328.263,185.894 326.874 C 184.742 325.484,183.373 323.864,182.850 323.274 C 182.328 322.683,181.470 321.570,180.944 320.800 C 180.418 320.030,179.184 318.320,178.203 317.000 C 177.221 315.680,175.755 313.610,174.944 312.400 C 174.134 311.190,173.249 310.066,172.977 309.903 C 172.705 309.740,171.429 308.134,170.141 306.334 C 168.854 304.535,167.240 302.418,166.555 301.631 C 163.319 297.914,163.654 296.055,167.677 295.396 C 168.625 295.240,170.570 294.623,172.000 294.024 C 173.430 293.424,175.468 292.718,176.529 292.454 C 177.590 292.190,179.983 291.170,181.846 290.187 C 183.710 289.204,185.542 288.400,185.917 288.399 C 186.293 288.399,187.230 287.859,188.000 287.200 C 188.770 286.541,190.356 285.236,191.525 284.301 C 195.875 280.820,196.921 279.773,198.053 277.767 C 198.691 276.637,199.555 275.403,199.973 275.025 C 200.391 274.646,201.140 273.316,201.638 272.068 C 202.136 270.821,202.954 269.300,203.456 268.688 C 203.957 268.077,204.479 266.907,204.613 266.088 C 204.748 265.270,205.192 262.800,205.600 260.600 C 206.778 254.245,206.789 254.124,206.833 247.400 C 206.865 242.394,206.737 240.680,206.244 239.530 C 205.197 237.087,204.961 233.727,205.773 232.829 C 206.806 231.689,253.141 231.769,254.286 232.914 " stroke="none" fill="#9c94ac" fill-rule="evenodd"></path></g></svg>
