<?xml version="1.0" standalone="no"?>
<!DOCTYPE svg PUBLIC "-//W3C//DTD SVG 20010904//EN"
 "http://www.w3.org/TR/2001/REC-SVG-20010904/DTD/svg10.dtd">
<svg version="1.0" xmlns="http://www.w3.org/2000/svg"
 width="700.000000pt" height="700.000000pt" viewBox="0 0 700.000000 700.000000"
 preserveAspectRatio="xMidYMid meet">
<metadata>
Created by potrace 1.14, written by Peter Selinger 2001-2017
</metadata>
<g transform="translate(0.000000,700.000000) scale(0.100000,-0.100000)"
fill="#000000" stroke="none">
<path d="M930 6594 c-325 -42 -600 -169 -648 -299 -44 -119 7 -168 168 -160
67 3 202 14 255 21 131 17 367 22 495 11 332 -29 539 -123 1190 -540 146 -93
282 -179 302 -189 21 -11 38 -22 38 -24 0 -3 -33 -54 -72 -115 l-73 -110 -45
48 c-123 130 -370 285 -583 365 -144 54 -289 94 -372 104 -27 4 -53 8 -56 10
-39 22 -544 22 -612 -1 -7 -2 -29 -6 -49 -9 -268 -39 -560 -162 -700 -294 -98
-93 -126 -188 -82 -278 54 -108 137 -105 442 12 159 62 355 127 415 139 58 11
81 16 86 20 42 25 467 26 676 0 17 -2 55 -6 85 -10 118 -14 373 -59 594 -105
82 -17 155 -29 162 -26 24 9 22 -7 -8 -60 -38 -68 -30 -70 13 -3 18 28 37 56
43 62 6 7 41 48 78 93 336 406 896 712 1428 780 14 2 52 7 85 11 118 15 499 8
605 -11 14 -3 43 -7 65 -11 22 -3 47 -7 55 -10 8 -2 26 -6 40 -9 56 -11 79
-17 176 -46 435 -129 843 -401 1119 -745 73 -91 165 -220 165 -231 0 -3 8 -18
19 -32 10 -15 41 -72 69 -127 207 -408 273 -853 196 -1310 -32 -189 -109 -425
-188 -575 -126 -239 -250 -408 -427 -582 -79 -78 -94 -98 -76 -98 25 0 49 19
170 137 349 340 591 824 653 1303 3 25 8 56 11 70 9 45 11 393 2 465 -4 39
-10 88 -13 110 -7 60 -25 152 -43 220 -8 33 -16 67 -18 75 -4 18 -36 112 -65
195 -32 90 -124 275 -187 378 -295 480 -774 849 -1300 1002 -112 33 -250 64
-316 71 -29 3 -72 10 -97 14 -47 9 -477 6 -520 -3 -14 -3 -43 -8 -65 -12 -35
-5 -70 -10 -125 -20 -62 -11 -209 -55 -335 -98 -138 -49 -386 -178 -504 -265
-96 -70 -149 -110 -190 -147 -64 -56 -189 -181 -238 -238 l-42 -49 -27 54
c-28 56 -146 236 -186 284 -158 189 -257 290 -406 415 -268 223 -493 329 -802
374 -83 13 -334 12 -430 -1z"/>
<path d="M3785 5716 c-110 -37 -193 -100 -240 -180 -67 -114 -81 -261 -38
-373 111 -283 478 -362 689 -147 207 210 144 551 -124 677 -57 27 -80 32 -157
34 -57 2 -105 -2 -130 -11z"/>
<path d="M2198 4862 c-28 -3 -31 -11 -44 -97 -3 -22 -9 -56 -14 -75 -5 -19
-12 -55 -15 -80 -4 -25 -13 -75 -20 -111 -8 -36 -17 -87 -21 -115 -3 -27 -8
-52 -10 -55 -2 -3 -6 -21 -9 -40 -19 -115 -28 -162 -40 -224 -7 -38 -17 -90
-20 -115 -4 -24 -8 -47 -10 -50 -2 -3 -6 -23 -9 -45 -4 -22 -16 -89 -27 -150
-12 -60 -23 -123 -25 -140 -3 -16 -9 -50 -14 -75 -5 -25 -12 -58 -15 -75 -10
-56 -34 -190 -40 -215 -2 -13 -7 -42 -11 -64 -3 -22 -7 -43 -9 -46 -1 -3 -6
-27 -9 -54 -4 -27 -9 -52 -11 -56 -2 -4 -7 -29 -11 -56 -3 -27 -8 -51 -9 -54
-2 -3 -6 -26 -9 -50 -4 -25 -11 -65 -16 -90 -8 -39 -39 -205 -55 -295 -2 -16
-25 -140 -50 -275 -25 -135 -48 -261 -51 -280 -3 -19 -12 -66 -19 -105 -8 -38
-17 -88 -20 -110 -4 -22 -8 -47 -10 -55 -3 -12 -65 -345 -141 -760 -14 -76
-37 -198 -40 -215 -2 -11 -7 -36 -10 -55 -3 -19 -12 -67 -20 -107 -8 -40 -14
-80 -14 -90 0 -17 27 -18 541 -18 536 0 542 0 549 20 4 12 10 36 13 55 3 19
24 136 47 260 23 124 44 239 46 255 3 17 9 50 14 75 5 25 12 61 15 80 3 19 8
42 10 50 2 8 6 31 9 50 3 19 14 82 25 140 11 58 23 121 26 140 3 19 12 69 20
110 8 41 17 91 20 110 3 19 17 91 30 160 13 69 27 141 30 160 15 92 37 207 41
223 5 16 52 17 810 17 762 0 805 -1 800 -17 -3 -10 -7 -34 -10 -53 -3 -19 -8
-46 -11 -60 -16 -85 -57 -300 -61 -329 -3 -18 -8 -43 -10 -55 -2 -11 -9 -48
-15 -81 -5 -33 -17 -94 -24 -135 -8 -41 -17 -88 -20 -105 -3 -16 -23 -129 -46
-250 -22 -121 -49 -267 -59 -325 -10 -58 -30 -166 -44 -240 -14 -74 -28 -151
-31 -170 -3 -19 -8 -46 -10 -60 l-6 -25 545 0 c299 0 546 2 548 5 2 3 15 63
27 135 28 156 28 157 41 220 5 28 11 61 14 75 2 14 9 52 15 85 6 33 12 71 15
85 3 22 9 52 22 125 2 11 13 70 25 130 12 61 23 121 25 135 3 14 7 36 9 50 8
41 13 65 19 101 6 36 6 38 36 199 11 58 22 119 25 135 2 17 7 41 10 55 3 14
10 52 16 85 5 33 12 71 15 85 8 44 64 344 69 375 18 96 38 203 41 220 2 11 15
81 28 155 14 74 41 221 60 325 19 105 37 204 40 220 3 17 8 41 11 55 3 14 12
63 20 110 8 47 17 95 19 106 2 12 7 37 10 55 3 19 21 117 40 219 19 102 38
199 40 215 22 122 67 365 71 385 3 14 8 41 11 60 4 19 8 44 10 55 2 11 8 45
14 75 10 57 15 86 25 133 5 24 3 27 -22 28 -226 5 -1056 0 -1063 -7 -6 -7 -36
-161 -101 -524 -4 -25 -15 -81 -23 -125 -8 -44 -17 -96 -20 -115 -4 -19 -11
-55 -16 -80 -8 -36 -45 -243 -75 -415 -5 -28 -8 -47 -20 -105 -2 -14 -7 -41
-11 -60 -3 -19 -12 -71 -20 -115 -9 -44 -18 -99 -21 -122 l-6 -43 -48 0 c-27
-1 -159 -1 -294 -1 -135 0 -477 0 -760 1 l-514 0 5 33 c3 17 10 52 15 77 5 25
11 59 14 75 2 17 16 91 30 165 14 74 28 150 31 169 3 18 8 43 10 55 2 11 11
59 19 106 8 47 17 96 20 110 15 79 88 470 91 495 3 17 9 50 14 75 5 25 12 59
15 75 27 155 47 260 51 267 3 4 -1 8 -8 9 -50 2 -1039 3 -1060 1z"/>
</g>
</svg>
