<?xml version="1.0" encoding="UTF-8" standalone="no"?><!DOCTYPE svg PUBLIC "-//W3C//DTD SVG 1.1//EN" "http://www.w3.org/Graphics/SVG/1.1/DTD/svg11.dtd"><svg width="100%" height="100%" viewBox="0 0 200 200" version="1.1" xmlns="http://www.w3.org/2000/svg" xmlns:xlink="http://www.w3.org/1999/xlink" xml:space="preserve" xmlns:serif="http://www.serif.com/" style="fill-rule:evenodd;clip-rule:evenodd;stroke-linejoin:round;stroke-miterlimit:2;"><style>@media (prefers-color-scheme: dark) {
      #square-trans { fill: #ffffff }
    }</style><g id="square-trans" serif:id="square trans"><rect id="layout-square" serif:id="layout square" x="-0.236" y="-0.762" width="200" height="200" style="fill:none;"/><g id="Rabbit"><path id="Ear" d="M39.868,36.263c20.252,1.405 34.347,14.463 33.982,15.977c-0.408,1.69 -16.147,-4.3 -36.446,-4.499c-19.624,-0.192 -33.624,15.097 -35.525,3.64c-1.17,-7.05 16.237,-16.627 37.989,-15.118Z"/><path id="Ear1" serif:id="Ear" d="M55.16,17.358c17.016,11.07 25.705,27.295 24.65,28.441c-1.178,1.279 -21.072,-14.201 -34.075,-19.38c-20.12,-8.015 -41.594,4.548 -37.687,-6.389c2.404,-6.729 28.835,-14.562 47.112,-2.672Z"/><circle id="Eye" cx="111.429" cy="48.232" r="12.021"/><path id="Head" d="M170.769,135.432c13.152,-11.42 21.416,-27.899 21.416,-46.208c0,-34.443 -29.245,-62.407 -65.266,-62.407c-23.537,0 -44.18,11.939 -55.661,29.82c10.609,-21.876 33.036,-36.974 58.961,-36.974c36.143,0 65.486,29.344 65.486,65.487c0,20.194 -9.16,38.266 -23.548,50.282l-1.388,-0Z"/></g><g transform="matrix(0.943128,-2.65462e-16,2.50365e-16,1,-22.1439,-1.06581e-13)"><text x="60.52px" y="189.578px" style="font-family:'Rubik-ExtraBoldItalic', 'Rubik';font-weight:800;font-style:italic;font-size:176.249px;">H</text></g></g></svg>
